<mxfile host="app.diagrams.net" agent="Mozilla/5.0 (Windows NT 10.0; Win64; x64) AppleWebKit/537.36 (KHTML, like Gecko) Chrome/131.0.0.0 Safari/537.36" version="25.0.3">
  <diagram name="Страница — 1" id="jPI483TR7Cvw3buOwN_m">
    <mxGraphModel dx="5239" dy="3099" grid="1" gridSize="10" guides="1" tooltips="1" connect="1" arrows="1" fold="1" page="1" pageScale="1" pageWidth="1654" pageHeight="1169" math="0" shadow="0">
      <root>
        <mxCell id="0" />
        <mxCell id="1" parent="0" />
        <mxCell id="GA9b0eAUMchBOjDDj7Ir-2" value="1" style="ellipse;whiteSpace=wrap;html=1;aspect=fixed;" vertex="1" parent="1">
          <mxGeometry x="-1457" y="-690" width="40" height="40" as="geometry" />
        </mxCell>
        <mxCell id="GA9b0eAUMchBOjDDj7Ir-3" value="(" style="ellipse;whiteSpace=wrap;html=1;aspect=fixed;" vertex="1" parent="1">
          <mxGeometry x="-1537" y="-550" width="40" height="40" as="geometry" />
        </mxCell>
        <mxCell id="GA9b0eAUMchBOjDDj7Ir-4" value="E" style="ellipse;whiteSpace=wrap;html=1;aspect=fixed;" vertex="1" parent="1">
          <mxGeometry x="-1487" y="-550" width="40" height="40" as="geometry" />
        </mxCell>
        <mxCell id="GA9b0eAUMchBOjDDj7Ir-5" value=")" style="ellipse;whiteSpace=wrap;html=1;aspect=fixed;" vertex="1" parent="1">
          <mxGeometry x="-1437" y="-550" width="40" height="40" as="geometry" />
        </mxCell>
        <mxCell id="GA9b0eAUMchBOjDDj7Ir-6" value=";" style="ellipse;whiteSpace=wrap;html=1;aspect=fixed;" vertex="1" parent="1">
          <mxGeometry x="-1387" y="-550" width="40" height="40" as="geometry" />
        </mxCell>
        <mxCell id="GA9b0eAUMchBOjDDj7Ir-7" value="N" style="ellipse;whiteSpace=wrap;html=1;aspect=fixed;" vertex="1" parent="1">
          <mxGeometry x="-1337" y="-550" width="40" height="40" as="geometry" />
        </mxCell>
        <mxCell id="GA9b0eAUMchBOjDDj7Ir-8" value="p" style="ellipse;whiteSpace=wrap;html=1;aspect=fixed;" vertex="1" parent="1">
          <mxGeometry x="-1587" y="-550" width="40" height="40" as="geometry" />
        </mxCell>
        <mxCell id="GA9b0eAUMchBOjDDj7Ir-9" value="" style="endArrow=none;html=1;rounded=1;entryX=0.5;entryY=0;entryDx=0;entryDy=0;exitX=0.5;exitY=1;exitDx=0;exitDy=0;curved=0;" edge="1" parent="1" source="GA9b0eAUMchBOjDDj7Ir-2" target="GA9b0eAUMchBOjDDj7Ir-8">
          <mxGeometry width="50" height="50" relative="1" as="geometry">
            <mxPoint x="-1582" y="-560" as="sourcePoint" />
            <mxPoint x="-1632" y="-540" as="targetPoint" />
          </mxGeometry>
        </mxCell>
        <mxCell id="GA9b0eAUMchBOjDDj7Ir-10" value="" style="endArrow=none;html=1;rounded=1;entryX=0.5;entryY=0;entryDx=0;entryDy=0;exitX=0.5;exitY=1;exitDx=0;exitDy=0;curved=0;" edge="1" parent="1" source="GA9b0eAUMchBOjDDj7Ir-2" target="GA9b0eAUMchBOjDDj7Ir-3">
          <mxGeometry width="50" height="50" relative="1" as="geometry">
            <mxPoint x="-1432" y="-560" as="sourcePoint" />
            <mxPoint x="-1557" y="-540" as="targetPoint" />
          </mxGeometry>
        </mxCell>
        <mxCell id="GA9b0eAUMchBOjDDj7Ir-11" value="" style="endArrow=none;html=1;rounded=1;entryX=0.5;entryY=0;entryDx=0;entryDy=0;exitX=0.5;exitY=1;exitDx=0;exitDy=0;curved=0;" edge="1" parent="1" source="GA9b0eAUMchBOjDDj7Ir-2" target="GA9b0eAUMchBOjDDj7Ir-4">
          <mxGeometry width="50" height="50" relative="1" as="geometry">
            <mxPoint x="-1432" y="-560" as="sourcePoint" />
            <mxPoint x="-1507" y="-540" as="targetPoint" />
          </mxGeometry>
        </mxCell>
        <mxCell id="GA9b0eAUMchBOjDDj7Ir-12" value="" style="endArrow=none;html=1;rounded=1;entryX=0.5;entryY=0;entryDx=0;entryDy=0;exitX=0.5;exitY=1;exitDx=0;exitDy=0;curved=0;" edge="1" parent="1" source="GA9b0eAUMchBOjDDj7Ir-2" target="GA9b0eAUMchBOjDDj7Ir-5">
          <mxGeometry width="50" height="50" relative="1" as="geometry">
            <mxPoint x="-1432" y="-560" as="sourcePoint" />
            <mxPoint x="-1457" y="-540" as="targetPoint" />
          </mxGeometry>
        </mxCell>
        <mxCell id="GA9b0eAUMchBOjDDj7Ir-13" value="" style="endArrow=none;html=1;rounded=1;entryX=0.5;entryY=0;entryDx=0;entryDy=0;exitX=0.5;exitY=1;exitDx=0;exitDy=0;curved=0;" edge="1" parent="1" source="GA9b0eAUMchBOjDDj7Ir-2" target="GA9b0eAUMchBOjDDj7Ir-6">
          <mxGeometry width="50" height="50" relative="1" as="geometry">
            <mxPoint x="-1432" y="-560" as="sourcePoint" />
            <mxPoint x="-1407" y="-540" as="targetPoint" />
          </mxGeometry>
        </mxCell>
        <mxCell id="GA9b0eAUMchBOjDDj7Ir-14" value="" style="endArrow=none;html=1;rounded=1;entryX=0.5;entryY=0;entryDx=0;entryDy=0;exitX=0.5;exitY=1;exitDx=0;exitDy=0;curved=0;" edge="1" parent="1" source="GA9b0eAUMchBOjDDj7Ir-2" target="GA9b0eAUMchBOjDDj7Ir-7">
          <mxGeometry width="50" height="50" relative="1" as="geometry">
            <mxPoint x="-1432" y="-560" as="sourcePoint" />
            <mxPoint x="-1357" y="-540" as="targetPoint" />
          </mxGeometry>
        </mxCell>
        <mxCell id="GA9b0eAUMchBOjDDj7Ir-15" value="i" style="ellipse;whiteSpace=wrap;html=1;aspect=fixed;" vertex="1" parent="1">
          <mxGeometry x="-1537" y="-500" width="40" height="40" as="geometry" />
        </mxCell>
        <mxCell id="GA9b0eAUMchBOjDDj7Ir-16" value="" style="endArrow=none;html=1;rounded=0;entryX=0.5;entryY=1;entryDx=0;entryDy=0;exitX=0.5;exitY=0;exitDx=0;exitDy=0;" edge="1" parent="1" source="GA9b0eAUMchBOjDDj7Ir-15" target="GA9b0eAUMchBOjDDj7Ir-4">
          <mxGeometry width="50" height="50" relative="1" as="geometry">
            <mxPoint x="-1632" y="-440" as="sourcePoint" />
            <mxPoint x="-1632" y="-450" as="targetPoint" />
          </mxGeometry>
        </mxCell>
        <mxCell id="GA9b0eAUMchBOjDDj7Ir-17" value="(" style="ellipse;whiteSpace=wrap;html=1;aspect=fixed;" vertex="1" parent="1">
          <mxGeometry x="-1487" y="-450" width="40" height="40" as="geometry" />
        </mxCell>
        <mxCell id="GA9b0eAUMchBOjDDj7Ir-18" value="E" style="ellipse;whiteSpace=wrap;html=1;aspect=fixed;" vertex="1" parent="1">
          <mxGeometry x="-1437" y="-450" width="40" height="40" as="geometry" />
        </mxCell>
        <mxCell id="GA9b0eAUMchBOjDDj7Ir-19" value=")" style="ellipse;whiteSpace=wrap;html=1;aspect=fixed;" vertex="1" parent="1">
          <mxGeometry x="-1387" y="-450" width="40" height="40" as="geometry" />
        </mxCell>
        <mxCell id="GA9b0eAUMchBOjDDj7Ir-20" value=";" style="ellipse;whiteSpace=wrap;html=1;aspect=fixed;" vertex="1" parent="1">
          <mxGeometry x="-1337" y="-450" width="40" height="40" as="geometry" />
        </mxCell>
        <mxCell id="GA9b0eAUMchBOjDDj7Ir-21" value="p" style="ellipse;whiteSpace=wrap;html=1;aspect=fixed;" vertex="1" parent="1">
          <mxGeometry x="-1537" y="-450" width="40" height="40" as="geometry" />
        </mxCell>
        <mxCell id="GA9b0eAUMchBOjDDj7Ir-22" value="" style="endArrow=none;html=1;rounded=0;entryX=0.5;entryY=1;entryDx=0;entryDy=0;exitX=0.5;exitY=0;exitDx=0;exitDy=0;" edge="1" parent="1" source="GA9b0eAUMchBOjDDj7Ir-21" target="GA9b0eAUMchBOjDDj7Ir-7">
          <mxGeometry width="50" height="50" relative="1" as="geometry">
            <mxPoint x="-1507" y="-490" as="sourcePoint" />
            <mxPoint x="-1457" y="-500" as="targetPoint" />
          </mxGeometry>
        </mxCell>
        <mxCell id="GA9b0eAUMchBOjDDj7Ir-23" value="" style="endArrow=none;html=1;rounded=0;entryX=0.5;entryY=1;entryDx=0;entryDy=0;exitX=0.5;exitY=0;exitDx=0;exitDy=0;" edge="1" parent="1" source="GA9b0eAUMchBOjDDj7Ir-17" target="GA9b0eAUMchBOjDDj7Ir-7">
          <mxGeometry width="50" height="50" relative="1" as="geometry">
            <mxPoint x="-1472" y="-410" as="sourcePoint" />
            <mxPoint x="-1307" y="-500" as="targetPoint" />
          </mxGeometry>
        </mxCell>
        <mxCell id="GA9b0eAUMchBOjDDj7Ir-24" value="" style="endArrow=none;html=1;rounded=0;entryX=0.5;entryY=1;entryDx=0;entryDy=0;exitX=0.5;exitY=0;exitDx=0;exitDy=0;" edge="1" parent="1" source="GA9b0eAUMchBOjDDj7Ir-18" target="GA9b0eAUMchBOjDDj7Ir-7">
          <mxGeometry width="50" height="50" relative="1" as="geometry">
            <mxPoint x="-1422" y="-410" as="sourcePoint" />
            <mxPoint x="-1307" y="-500" as="targetPoint" />
          </mxGeometry>
        </mxCell>
        <mxCell id="GA9b0eAUMchBOjDDj7Ir-25" value="" style="endArrow=none;html=1;rounded=0;entryX=0.5;entryY=1;entryDx=0;entryDy=0;exitX=0.5;exitY=0;exitDx=0;exitDy=0;" edge="1" parent="1" source="GA9b0eAUMchBOjDDj7Ir-19" target="GA9b0eAUMchBOjDDj7Ir-7">
          <mxGeometry width="50" height="50" relative="1" as="geometry">
            <mxPoint x="-1372" y="-410" as="sourcePoint" />
            <mxPoint x="-1307" y="-500" as="targetPoint" />
          </mxGeometry>
        </mxCell>
        <mxCell id="GA9b0eAUMchBOjDDj7Ir-26" value="" style="endArrow=none;html=1;rounded=0;entryX=0.5;entryY=1;entryDx=0;entryDy=0;exitX=0.5;exitY=0;exitDx=0;exitDy=0;" edge="1" parent="1" source="GA9b0eAUMchBOjDDj7Ir-20" target="GA9b0eAUMchBOjDDj7Ir-7">
          <mxGeometry width="50" height="50" relative="1" as="geometry">
            <mxPoint x="-1322" y="-410" as="sourcePoint" />
            <mxPoint x="-1307" y="-500" as="targetPoint" />
          </mxGeometry>
        </mxCell>
        <mxCell id="GA9b0eAUMchBOjDDj7Ir-27" value="l" style="ellipse;whiteSpace=wrap;html=1;aspect=fixed;" vertex="1" parent="1">
          <mxGeometry x="-1437" y="-390" width="40" height="40" as="geometry" />
        </mxCell>
        <mxCell id="GA9b0eAUMchBOjDDj7Ir-28" value="" style="endArrow=none;html=1;rounded=0;entryX=0.5;entryY=1;entryDx=0;entryDy=0;exitX=0.5;exitY=0;exitDx=0;exitDy=0;" edge="1" parent="1" source="GA9b0eAUMchBOjDDj7Ir-27" target="GA9b0eAUMchBOjDDj7Ir-18">
          <mxGeometry width="50" height="50" relative="1" as="geometry">
            <mxPoint x="-1372" y="-400" as="sourcePoint" />
            <mxPoint x="-1382" y="-370" as="targetPoint" />
          </mxGeometry>
        </mxCell>
        <mxCell id="GA9b0eAUMchBOjDDj7Ir-30" value="2" style="ellipse;whiteSpace=wrap;html=1;aspect=fixed;" vertex="1" parent="1">
          <mxGeometry x="-1437" y="-1105" width="40" height="40" as="geometry" />
        </mxCell>
        <mxCell id="GA9b0eAUMchBOjDDj7Ir-31" value="v" style="ellipse;whiteSpace=wrap;html=1;aspect=fixed;" vertex="1" parent="1">
          <mxGeometry x="-1587" y="-965" width="40" height="40" as="geometry" />
        </mxCell>
        <mxCell id="GA9b0eAUMchBOjDDj7Ir-32" value="t" style="ellipse;whiteSpace=wrap;html=1;aspect=fixed;" vertex="1" parent="1">
          <mxGeometry x="-1537" y="-965" width="40" height="40" as="geometry" />
        </mxCell>
        <mxCell id="GA9b0eAUMchBOjDDj7Ir-33" value="i" style="ellipse;whiteSpace=wrap;html=1;aspect=fixed;" vertex="1" parent="1">
          <mxGeometry x="-1487" y="-965" width="40" height="40" as="geometry" />
        </mxCell>
        <mxCell id="GA9b0eAUMchBOjDDj7Ir-34" value="=" style="ellipse;whiteSpace=wrap;html=1;aspect=fixed;" vertex="1" parent="1">
          <mxGeometry x="-1437" y="-965" width="40" height="40" as="geometry" />
        </mxCell>
        <mxCell id="GA9b0eAUMchBOjDDj7Ir-35" value="E" style="ellipse;whiteSpace=wrap;html=1;aspect=fixed;" vertex="1" parent="1">
          <mxGeometry x="-1387" y="-965" width="40" height="40" as="geometry" />
        </mxCell>
        <mxCell id="GA9b0eAUMchBOjDDj7Ir-36" value=";" style="ellipse;whiteSpace=wrap;html=1;aspect=fixed;" vertex="1" parent="1">
          <mxGeometry x="-1337" y="-965" width="40" height="40" as="geometry" />
        </mxCell>
        <mxCell id="GA9b0eAUMchBOjDDj7Ir-37" value="" style="endArrow=none;html=1;rounded=0;exitX=0.5;exitY=1;exitDx=0;exitDy=0;entryX=0.5;entryY=0;entryDx=0;entryDy=0;" edge="1" parent="1" source="GA9b0eAUMchBOjDDj7Ir-30" target="GA9b0eAUMchBOjDDj7Ir-31">
          <mxGeometry width="50" height="50" relative="1" as="geometry">
            <mxPoint x="-1213" y="-980" as="sourcePoint" />
            <mxPoint x="-1163" y="-1030" as="targetPoint" />
          </mxGeometry>
        </mxCell>
        <mxCell id="GA9b0eAUMchBOjDDj7Ir-38" value="" style="endArrow=none;html=1;rounded=0;exitX=0.5;exitY=1;exitDx=0;exitDy=0;entryX=0.5;entryY=0;entryDx=0;entryDy=0;" edge="1" parent="1" source="GA9b0eAUMchBOjDDj7Ir-30" target="GA9b0eAUMchBOjDDj7Ir-32">
          <mxGeometry width="50" height="50" relative="1" as="geometry">
            <mxPoint x="-1277" y="-1045" as="sourcePoint" />
            <mxPoint x="-1143" y="-950" as="targetPoint" />
          </mxGeometry>
        </mxCell>
        <mxCell id="GA9b0eAUMchBOjDDj7Ir-39" value="" style="endArrow=none;html=1;rounded=0;exitX=0.5;exitY=1;exitDx=0;exitDy=0;entryX=0.5;entryY=0;entryDx=0;entryDy=0;" edge="1" parent="1" source="GA9b0eAUMchBOjDDj7Ir-30" target="GA9b0eAUMchBOjDDj7Ir-33">
          <mxGeometry width="50" height="50" relative="1" as="geometry">
            <mxPoint x="-1177" y="-1045" as="sourcePoint" />
            <mxPoint x="-1143" y="-950" as="targetPoint" />
          </mxGeometry>
        </mxCell>
        <mxCell id="GA9b0eAUMchBOjDDj7Ir-40" value="" style="endArrow=none;html=1;rounded=0;exitX=0.5;exitY=1;exitDx=0;exitDy=0;entryX=0.5;entryY=0;entryDx=0;entryDy=0;" edge="1" parent="1" source="GA9b0eAUMchBOjDDj7Ir-30" target="GA9b0eAUMchBOjDDj7Ir-34">
          <mxGeometry width="50" height="50" relative="1" as="geometry">
            <mxPoint x="-1177" y="-1045" as="sourcePoint" />
            <mxPoint x="-1043" y="-950" as="targetPoint" />
          </mxGeometry>
        </mxCell>
        <mxCell id="GA9b0eAUMchBOjDDj7Ir-41" value="" style="endArrow=none;html=1;rounded=0;exitX=0.5;exitY=1;exitDx=0;exitDy=0;entryX=0.5;entryY=0;entryDx=0;entryDy=0;" edge="1" parent="1" source="GA9b0eAUMchBOjDDj7Ir-30" target="GA9b0eAUMchBOjDDj7Ir-35">
          <mxGeometry width="50" height="50" relative="1" as="geometry">
            <mxPoint x="-1177" y="-1045" as="sourcePoint" />
            <mxPoint x="-1033" y="-940" as="targetPoint" />
          </mxGeometry>
        </mxCell>
        <mxCell id="GA9b0eAUMchBOjDDj7Ir-42" value="" style="endArrow=none;html=1;rounded=0;exitX=0.5;exitY=1;exitDx=0;exitDy=0;entryX=0.5;entryY=0;entryDx=0;entryDy=0;" edge="1" parent="1" source="GA9b0eAUMchBOjDDj7Ir-30" target="GA9b0eAUMchBOjDDj7Ir-36">
          <mxGeometry width="50" height="50" relative="1" as="geometry">
            <mxPoint x="-1177" y="-1045" as="sourcePoint" />
            <mxPoint x="-943" y="-950" as="targetPoint" />
          </mxGeometry>
        </mxCell>
        <mxCell id="GA9b0eAUMchBOjDDj7Ir-43" value="" style="endArrow=none;html=1;rounded=0;exitX=0.5;exitY=1;exitDx=0;exitDy=0;entryX=0.5;entryY=0;entryDx=0;entryDy=0;" edge="1" parent="1" source="GA9b0eAUMchBOjDDj7Ir-30" target="GA9b0eAUMchBOjDDj7Ir-61">
          <mxGeometry width="50" height="50" relative="1" as="geometry">
            <mxPoint x="-1177" y="-1045" as="sourcePoint" />
            <mxPoint x="-1267" y="-965" as="targetPoint" />
          </mxGeometry>
        </mxCell>
        <mxCell id="GA9b0eAUMchBOjDDj7Ir-45" value="i&lt;span style=&quot;color: rgba(0, 0, 0, 0); font-family: monospace; font-size: 0px; text-align: start; text-wrap-mode: nowrap;&quot;&gt;%3CmxGraphModel%3E%3Croot%3E%3CmxCell%20id%3D%220%22%2F%3E%3CmxCell%20id%3D%221%22%20parent%3D%220%22%2F%3E%3CmxCell%20id%3D%222%22%20value%3D%22l%22%20style%3D%22ellipse%3BwhiteSpace%3Dwrap%3Bhtml%3D1%3Baspect%3Dfixed%3B%22%20vertex%3D%221%22%20parent%3D%221%22%3E%3CmxGeometry%20x%3D%221060%22%20y%3D%22560%22%20width%3D%2240%22%20height%3D%2240%22%20as%3D%22geometry%22%2F%3E%3C%2FmxCell%3E%3C%2Froot%3E%3C%2FmxGraphModel%3E&lt;/span&gt;" style="ellipse;whiteSpace=wrap;html=1;aspect=fixed;" vertex="1" parent="1">
          <mxGeometry x="-1537" y="-865" width="40" height="40" as="geometry" />
        </mxCell>
        <mxCell id="GA9b0eAUMchBOjDDj7Ir-46" value="(" style="ellipse;whiteSpace=wrap;html=1;aspect=fixed;" vertex="1" parent="1">
          <mxGeometry x="-1487" y="-865" width="40" height="40" as="geometry" />
        </mxCell>
        <mxCell id="GA9b0eAUMchBOjDDj7Ir-48" value=")" style="ellipse;whiteSpace=wrap;html=1;aspect=fixed;" vertex="1" parent="1">
          <mxGeometry x="-1437" y="-865" width="40" height="40" as="geometry" />
        </mxCell>
        <mxCell id="GA9b0eAUMchBOjDDj7Ir-49" value="" style="endArrow=none;html=1;rounded=0;exitX=0.5;exitY=1;exitDx=0;exitDy=0;entryX=0.5;entryY=0;entryDx=0;entryDy=0;" edge="1" parent="1" source="GA9b0eAUMchBOjDDj7Ir-35" target="GA9b0eAUMchBOjDDj7Ir-45">
          <mxGeometry width="50" height="50" relative="1" as="geometry">
            <mxPoint x="-1177" y="-1045" as="sourcePoint" />
            <mxPoint x="-1337" y="-925" as="targetPoint" />
          </mxGeometry>
        </mxCell>
        <mxCell id="GA9b0eAUMchBOjDDj7Ir-50" value="" style="endArrow=none;html=1;rounded=0;entryX=0.5;entryY=0;entryDx=0;entryDy=0;exitX=0.5;exitY=1;exitDx=0;exitDy=0;" edge="1" parent="1" source="GA9b0eAUMchBOjDDj7Ir-35" target="GA9b0eAUMchBOjDDj7Ir-46">
          <mxGeometry width="50" height="50" relative="1" as="geometry">
            <mxPoint x="-1177" y="-885" as="sourcePoint" />
            <mxPoint x="-1337" y="-855" as="targetPoint" />
          </mxGeometry>
        </mxCell>
        <mxCell id="GA9b0eAUMchBOjDDj7Ir-52" value="" style="endArrow=none;html=1;rounded=0;entryX=0.5;entryY=0;entryDx=0;entryDy=0;exitX=0.5;exitY=1;exitDx=0;exitDy=0;" edge="1" parent="1" source="GA9b0eAUMchBOjDDj7Ir-35" target="GA9b0eAUMchBOjDDj7Ir-48">
          <mxGeometry width="50" height="50" relative="1" as="geometry">
            <mxPoint x="-1187" y="-885" as="sourcePoint" />
            <mxPoint x="-1237" y="-855" as="targetPoint" />
          </mxGeometry>
        </mxCell>
        <mxCell id="GA9b0eAUMchBOjDDj7Ir-61" value="N" style="ellipse;whiteSpace=wrap;html=1;aspect=fixed;" vertex="1" parent="1">
          <mxGeometry x="-1287" y="-965" width="40" height="40" as="geometry" />
        </mxCell>
        <mxCell id="GA9b0eAUMchBOjDDj7Ir-62" value="v" style="ellipse;whiteSpace=wrap;html=1;aspect=fixed;" vertex="1" parent="1">
          <mxGeometry x="-1437" y="-805" width="40" height="40" as="geometry" />
        </mxCell>
        <mxCell id="GA9b0eAUMchBOjDDj7Ir-63" value="t" style="ellipse;whiteSpace=wrap;html=1;aspect=fixed;" vertex="1" parent="1">
          <mxGeometry x="-1387" y="-805" width="40" height="40" as="geometry" />
        </mxCell>
        <mxCell id="GA9b0eAUMchBOjDDj7Ir-64" value="i" style="ellipse;whiteSpace=wrap;html=1;aspect=fixed;" vertex="1" parent="1">
          <mxGeometry x="-1337" y="-805" width="40" height="40" as="geometry" />
        </mxCell>
        <mxCell id="GA9b0eAUMchBOjDDj7Ir-65" value="=" style="ellipse;whiteSpace=wrap;html=1;aspect=fixed;" vertex="1" parent="1">
          <mxGeometry x="-1287" y="-805" width="40" height="40" as="geometry" />
        </mxCell>
        <mxCell id="GA9b0eAUMchBOjDDj7Ir-66" value="E" style="ellipse;whiteSpace=wrap;html=1;aspect=fixed;" vertex="1" parent="1">
          <mxGeometry x="-1237" y="-805" width="40" height="40" as="geometry" />
        </mxCell>
        <mxCell id="GA9b0eAUMchBOjDDj7Ir-67" value=";" style="ellipse;whiteSpace=wrap;html=1;aspect=fixed;" vertex="1" parent="1">
          <mxGeometry x="-1187" y="-805" width="40" height="40" as="geometry" />
        </mxCell>
        <mxCell id="GA9b0eAUMchBOjDDj7Ir-68" value="" style="endArrow=none;html=1;rounded=0;exitX=0.5;exitY=1;exitDx=0;exitDy=0;entryX=0.5;entryY=0;entryDx=0;entryDy=0;" edge="1" parent="1" source="GA9b0eAUMchBOjDDj7Ir-61" target="GA9b0eAUMchBOjDDj7Ir-62">
          <mxGeometry width="50" height="50" relative="1" as="geometry">
            <mxPoint x="-1063" y="-840" as="sourcePoint" />
            <mxPoint x="-1013" y="-890" as="targetPoint" />
          </mxGeometry>
        </mxCell>
        <mxCell id="GA9b0eAUMchBOjDDj7Ir-69" value="" style="endArrow=none;html=1;rounded=0;exitX=0.5;exitY=1;exitDx=0;exitDy=0;entryX=0.5;entryY=0;entryDx=0;entryDy=0;" edge="1" parent="1" source="GA9b0eAUMchBOjDDj7Ir-61" target="GA9b0eAUMchBOjDDj7Ir-63">
          <mxGeometry width="50" height="50" relative="1" as="geometry">
            <mxPoint x="-1127" y="-905" as="sourcePoint" />
            <mxPoint x="-993" y="-810" as="targetPoint" />
          </mxGeometry>
        </mxCell>
        <mxCell id="GA9b0eAUMchBOjDDj7Ir-70" value="" style="endArrow=none;html=1;rounded=0;exitX=0.5;exitY=1;exitDx=0;exitDy=0;entryX=0.5;entryY=0;entryDx=0;entryDy=0;" edge="1" parent="1" source="GA9b0eAUMchBOjDDj7Ir-61" target="GA9b0eAUMchBOjDDj7Ir-64">
          <mxGeometry width="50" height="50" relative="1" as="geometry">
            <mxPoint x="-1027" y="-905" as="sourcePoint" />
            <mxPoint x="-993" y="-810" as="targetPoint" />
          </mxGeometry>
        </mxCell>
        <mxCell id="GA9b0eAUMchBOjDDj7Ir-71" value="" style="endArrow=none;html=1;rounded=0;exitX=0.5;exitY=1;exitDx=0;exitDy=0;entryX=0.5;entryY=0;entryDx=0;entryDy=0;" edge="1" parent="1" source="GA9b0eAUMchBOjDDj7Ir-61" target="GA9b0eAUMchBOjDDj7Ir-65">
          <mxGeometry width="50" height="50" relative="1" as="geometry">
            <mxPoint x="-1027" y="-905" as="sourcePoint" />
            <mxPoint x="-893" y="-810" as="targetPoint" />
          </mxGeometry>
        </mxCell>
        <mxCell id="GA9b0eAUMchBOjDDj7Ir-72" value="" style="endArrow=none;html=1;rounded=0;exitX=0.5;exitY=1;exitDx=0;exitDy=0;entryX=0.5;entryY=0;entryDx=0;entryDy=0;" edge="1" parent="1" source="GA9b0eAUMchBOjDDj7Ir-61" target="GA9b0eAUMchBOjDDj7Ir-66">
          <mxGeometry width="50" height="50" relative="1" as="geometry">
            <mxPoint x="-1027" y="-905" as="sourcePoint" />
            <mxPoint x="-883" y="-800" as="targetPoint" />
          </mxGeometry>
        </mxCell>
        <mxCell id="GA9b0eAUMchBOjDDj7Ir-73" value="" style="endArrow=none;html=1;rounded=0;exitX=0.5;exitY=1;exitDx=0;exitDy=0;entryX=0.5;entryY=0;entryDx=0;entryDy=0;" edge="1" parent="1" source="GA9b0eAUMchBOjDDj7Ir-61" target="GA9b0eAUMchBOjDDj7Ir-67">
          <mxGeometry width="50" height="50" relative="1" as="geometry">
            <mxPoint x="-1027" y="-905" as="sourcePoint" />
            <mxPoint x="-793" y="-810" as="targetPoint" />
          </mxGeometry>
        </mxCell>
        <mxCell id="GA9b0eAUMchBOjDDj7Ir-74" value="" style="endArrow=none;html=1;rounded=0;exitX=0.5;exitY=1;exitDx=0;exitDy=0;entryX=0.5;entryY=0;entryDx=0;entryDy=0;" edge="1" parent="1" source="GA9b0eAUMchBOjDDj7Ir-61" target="GA9b0eAUMchBOjDDj7Ir-83">
          <mxGeometry width="50" height="50" relative="1" as="geometry">
            <mxPoint x="-1027" y="-905" as="sourcePoint" />
            <mxPoint x="-1117" y="-805" as="targetPoint" />
          </mxGeometry>
        </mxCell>
        <mxCell id="GA9b0eAUMchBOjDDj7Ir-76" value="i&lt;span style=&quot;color: rgba(0, 0, 0, 0); font-family: monospace; font-size: 0px; text-align: start; text-wrap-mode: nowrap;&quot;&gt;%3CmxGraphModel%3E%3Croot%3E%3CmxCell%20id%3D%220%22%2F%3E%3CmxCell%20id%3D%221%22%20parent%3D%220%22%2F%3E%3CmxCell%20id%3D%222%22%20value%3D%22l%22%20style%3D%22ellipse%3BwhiteSpace%3Dwrap%3Bhtml%3D1%3Baspect%3Dfixed%3B%22%20vertex%3D%221%22%20parent%3D%221%22%3E%3CmxGeometry%20x%3D%221060%22%20y%3D%22560%22%20width%3D%2240%22%20height%3D%2240%22%20as%3D%22geometry%22%2F%3E%3C%2FmxCell%3E%3C%2Froot%3E%3C%2FmxGraphModel%3E&lt;/span&gt;" style="ellipse;whiteSpace=wrap;html=1;aspect=fixed;" vertex="1" parent="1">
          <mxGeometry x="-1337" y="-745" width="40" height="40" as="geometry" />
        </mxCell>
        <mxCell id="GA9b0eAUMchBOjDDj7Ir-77" value="(" style="ellipse;whiteSpace=wrap;html=1;aspect=fixed;" vertex="1" parent="1">
          <mxGeometry x="-1287" y="-745" width="40" height="40" as="geometry" />
        </mxCell>
        <mxCell id="GA9b0eAUMchBOjDDj7Ir-78" value=")" style="ellipse;whiteSpace=wrap;html=1;aspect=fixed;" vertex="1" parent="1">
          <mxGeometry x="-1237" y="-745" width="40" height="40" as="geometry" />
        </mxCell>
        <mxCell id="GA9b0eAUMchBOjDDj7Ir-79" value="" style="endArrow=none;html=1;rounded=0;exitX=0.5;exitY=1;exitDx=0;exitDy=0;entryX=0.5;entryY=0;entryDx=0;entryDy=0;" edge="1" parent="1" source="GA9b0eAUMchBOjDDj7Ir-66" target="GA9b0eAUMchBOjDDj7Ir-76">
          <mxGeometry width="50" height="50" relative="1" as="geometry">
            <mxPoint x="-1027" y="-885" as="sourcePoint" />
            <mxPoint x="-1367" y="-704.9999999999999" as="targetPoint" />
          </mxGeometry>
        </mxCell>
        <mxCell id="GA9b0eAUMchBOjDDj7Ir-80" value="" style="endArrow=none;html=1;rounded=0;entryX=0.5;entryY=0;entryDx=0;entryDy=0;exitX=0.5;exitY=1;exitDx=0;exitDy=0;" edge="1" parent="1" source="GA9b0eAUMchBOjDDj7Ir-66" target="GA9b0eAUMchBOjDDj7Ir-77">
          <mxGeometry width="50" height="50" relative="1" as="geometry">
            <mxPoint x="-1027" y="-725" as="sourcePoint" />
            <mxPoint x="-1317" y="-704.9999999999999" as="targetPoint" />
          </mxGeometry>
        </mxCell>
        <mxCell id="GA9b0eAUMchBOjDDj7Ir-81" value="" style="endArrow=none;html=1;rounded=0;entryX=0.5;entryY=0;entryDx=0;entryDy=0;exitX=0.5;exitY=1;exitDx=0;exitDy=0;" edge="1" parent="1" source="GA9b0eAUMchBOjDDj7Ir-66" target="GA9b0eAUMchBOjDDj7Ir-78">
          <mxGeometry width="50" height="50" relative="1" as="geometry">
            <mxPoint x="-1037" y="-725" as="sourcePoint" />
            <mxPoint x="-1267" y="-704.9999999999999" as="targetPoint" />
          </mxGeometry>
        </mxCell>
        <mxCell id="GA9b0eAUMchBOjDDj7Ir-83" value="N" style="ellipse;whiteSpace=wrap;html=1;aspect=fixed;" vertex="1" parent="1">
          <mxGeometry x="-1137" y="-805" width="40" height="40" as="geometry" />
        </mxCell>
        <mxCell id="GA9b0eAUMchBOjDDj7Ir-84" value="v" style="ellipse;whiteSpace=wrap;html=1;aspect=fixed;" vertex="1" parent="1">
          <mxGeometry x="-1137" y="-745" width="40" height="40" as="geometry" />
        </mxCell>
        <mxCell id="GA9b0eAUMchBOjDDj7Ir-85" value="t" style="ellipse;whiteSpace=wrap;html=1;aspect=fixed;" vertex="1" parent="1">
          <mxGeometry x="-1087" y="-745" width="40" height="40" as="geometry" />
        </mxCell>
        <mxCell id="GA9b0eAUMchBOjDDj7Ir-86" value="i" style="ellipse;whiteSpace=wrap;html=1;aspect=fixed;" vertex="1" parent="1">
          <mxGeometry x="-1037" y="-745" width="40" height="40" as="geometry" />
        </mxCell>
        <mxCell id="GA9b0eAUMchBOjDDj7Ir-87" value="=" style="ellipse;whiteSpace=wrap;html=1;aspect=fixed;" vertex="1" parent="1">
          <mxGeometry x="-987" y="-745" width="40" height="40" as="geometry" />
        </mxCell>
        <mxCell id="GA9b0eAUMchBOjDDj7Ir-88" value="E" style="ellipse;whiteSpace=wrap;html=1;aspect=fixed;" vertex="1" parent="1">
          <mxGeometry x="-937" y="-745" width="40" height="40" as="geometry" />
        </mxCell>
        <mxCell id="GA9b0eAUMchBOjDDj7Ir-89" value=";" style="ellipse;whiteSpace=wrap;html=1;aspect=fixed;" vertex="1" parent="1">
          <mxGeometry x="-887" y="-745" width="40" height="40" as="geometry" />
        </mxCell>
        <mxCell id="GA9b0eAUMchBOjDDj7Ir-90" value="" style="endArrow=none;html=1;rounded=0;exitX=0.5;exitY=1;exitDx=0;exitDy=0;entryX=0.5;entryY=0;entryDx=0;entryDy=0;" edge="1" parent="1" source="GA9b0eAUMchBOjDDj7Ir-83" target="GA9b0eAUMchBOjDDj7Ir-84">
          <mxGeometry width="50" height="50" relative="1" as="geometry">
            <mxPoint x="-913" y="-680" as="sourcePoint" />
            <mxPoint x="-863" y="-730" as="targetPoint" />
          </mxGeometry>
        </mxCell>
        <mxCell id="GA9b0eAUMchBOjDDj7Ir-91" value="" style="endArrow=none;html=1;rounded=0;exitX=0.5;exitY=1;exitDx=0;exitDy=0;entryX=0.5;entryY=0;entryDx=0;entryDy=0;" edge="1" parent="1" source="GA9b0eAUMchBOjDDj7Ir-83" target="GA9b0eAUMchBOjDDj7Ir-85">
          <mxGeometry width="50" height="50" relative="1" as="geometry">
            <mxPoint x="-977" y="-745" as="sourcePoint" />
            <mxPoint x="-843" y="-650" as="targetPoint" />
          </mxGeometry>
        </mxCell>
        <mxCell id="GA9b0eAUMchBOjDDj7Ir-92" value="" style="endArrow=none;html=1;rounded=0;exitX=0.5;exitY=1;exitDx=0;exitDy=0;entryX=0.5;entryY=0;entryDx=0;entryDy=0;" edge="1" parent="1" source="GA9b0eAUMchBOjDDj7Ir-83" target="GA9b0eAUMchBOjDDj7Ir-86">
          <mxGeometry width="50" height="50" relative="1" as="geometry">
            <mxPoint x="-877" y="-745" as="sourcePoint" />
            <mxPoint x="-843" y="-650" as="targetPoint" />
          </mxGeometry>
        </mxCell>
        <mxCell id="GA9b0eAUMchBOjDDj7Ir-93" value="" style="endArrow=none;html=1;rounded=0;exitX=0.5;exitY=1;exitDx=0;exitDy=0;entryX=0.5;entryY=0;entryDx=0;entryDy=0;" edge="1" parent="1" source="GA9b0eAUMchBOjDDj7Ir-83" target="GA9b0eAUMchBOjDDj7Ir-87">
          <mxGeometry width="50" height="50" relative="1" as="geometry">
            <mxPoint x="-877" y="-745" as="sourcePoint" />
            <mxPoint x="-743" y="-650" as="targetPoint" />
          </mxGeometry>
        </mxCell>
        <mxCell id="GA9b0eAUMchBOjDDj7Ir-94" value="" style="endArrow=none;html=1;rounded=0;exitX=0.5;exitY=1;exitDx=0;exitDy=0;entryX=0.5;entryY=0;entryDx=0;entryDy=0;" edge="1" parent="1" source="GA9b0eAUMchBOjDDj7Ir-83" target="GA9b0eAUMchBOjDDj7Ir-88">
          <mxGeometry width="50" height="50" relative="1" as="geometry">
            <mxPoint x="-877" y="-745" as="sourcePoint" />
            <mxPoint x="-733" y="-640" as="targetPoint" />
          </mxGeometry>
        </mxCell>
        <mxCell id="GA9b0eAUMchBOjDDj7Ir-95" value="" style="endArrow=none;html=1;rounded=0;exitX=0.5;exitY=1;exitDx=0;exitDy=0;entryX=0.5;entryY=0;entryDx=0;entryDy=0;" edge="1" parent="1" source="GA9b0eAUMchBOjDDj7Ir-83" target="GA9b0eAUMchBOjDDj7Ir-89">
          <mxGeometry width="50" height="50" relative="1" as="geometry">
            <mxPoint x="-877" y="-745" as="sourcePoint" />
            <mxPoint x="-643" y="-650" as="targetPoint" />
          </mxGeometry>
        </mxCell>
        <mxCell id="GA9b0eAUMchBOjDDj7Ir-96" value="" style="endArrow=none;html=1;rounded=0;exitX=0.5;exitY=1;exitDx=0;exitDy=0;entryX=0.5;entryY=0;entryDx=0;entryDy=0;" edge="1" parent="1" source="GA9b0eAUMchBOjDDj7Ir-83" target="GA9b0eAUMchBOjDDj7Ir-115">
          <mxGeometry width="50" height="50" relative="1" as="geometry">
            <mxPoint x="-877" y="-745" as="sourcePoint" />
            <mxPoint x="-997" y="-629" as="targetPoint" />
          </mxGeometry>
        </mxCell>
        <mxCell id="GA9b0eAUMchBOjDDj7Ir-98" value="i&lt;span style=&quot;color: rgba(0, 0, 0, 0); font-family: monospace; font-size: 0px; text-align: start; text-wrap-mode: nowrap;&quot;&gt;%3CmxGraphModel%3E%3Croot%3E%3CmxCell%20id%3D%220%22%2F%3E%3CmxCell%20id%3D%221%22%20parent%3D%220%22%2F%3E%3CmxCell%20id%3D%222%22%20value%3D%22l%22%20style%3D%22ellipse%3BwhiteSpace%3Dwrap%3Bhtml%3D1%3Baspect%3Dfixed%3B%22%20vertex%3D%221%22%20parent%3D%221%22%3E%3CmxGeometry%20x%3D%221060%22%20y%3D%22560%22%20width%3D%2240%22%20height%3D%2240%22%20as%3D%22geometry%22%2F%3E%3C%2FmxCell%3E%3C%2Froot%3E%3C%2FmxGraphModel%3E&lt;/span&gt;" style="ellipse;whiteSpace=wrap;html=1;aspect=fixed;" vertex="1" parent="1">
          <mxGeometry x="-1087" y="-680" width="40" height="40" as="geometry" />
        </mxCell>
        <mxCell id="GA9b0eAUMchBOjDDj7Ir-99" value="(" style="ellipse;whiteSpace=wrap;html=1;aspect=fixed;" vertex="1" parent="1">
          <mxGeometry x="-1037" y="-680" width="40" height="40" as="geometry" />
        </mxCell>
        <mxCell id="GA9b0eAUMchBOjDDj7Ir-100" value=")" style="ellipse;whiteSpace=wrap;html=1;aspect=fixed;" vertex="1" parent="1">
          <mxGeometry x="-937" y="-680" width="40" height="40" as="geometry" />
        </mxCell>
        <mxCell id="GA9b0eAUMchBOjDDj7Ir-101" value="" style="endArrow=none;html=1;rounded=0;exitX=0.5;exitY=1;exitDx=0;exitDy=0;entryX=0.5;entryY=0;entryDx=0;entryDy=0;" edge="1" parent="1" source="GA9b0eAUMchBOjDDj7Ir-88" target="GA9b0eAUMchBOjDDj7Ir-98">
          <mxGeometry width="50" height="50" relative="1" as="geometry">
            <mxPoint x="-727" y="-825" as="sourcePoint" />
            <mxPoint x="-1067" y="-685" as="targetPoint" />
          </mxGeometry>
        </mxCell>
        <mxCell id="GA9b0eAUMchBOjDDj7Ir-102" value="" style="endArrow=none;html=1;rounded=0;entryX=0.5;entryY=0;entryDx=0;entryDy=0;exitX=0.5;exitY=1;exitDx=0;exitDy=0;" edge="1" parent="1" source="GA9b0eAUMchBOjDDj7Ir-88" target="GA9b0eAUMchBOjDDj7Ir-99">
          <mxGeometry width="50" height="50" relative="1" as="geometry">
            <mxPoint x="-727" y="-665" as="sourcePoint" />
            <mxPoint x="-1017" y="-685" as="targetPoint" />
          </mxGeometry>
        </mxCell>
        <mxCell id="GA9b0eAUMchBOjDDj7Ir-103" value="" style="endArrow=none;html=1;rounded=0;entryX=0.5;entryY=0;entryDx=0;entryDy=0;exitX=0.5;exitY=1;exitDx=0;exitDy=0;" edge="1" parent="1" source="GA9b0eAUMchBOjDDj7Ir-88" target="GA9b0eAUMchBOjDDj7Ir-100">
          <mxGeometry width="50" height="50" relative="1" as="geometry">
            <mxPoint x="-737" y="-665" as="sourcePoint" />
            <mxPoint x="-917" y="-685" as="targetPoint" />
          </mxGeometry>
        </mxCell>
        <mxCell id="GA9b0eAUMchBOjDDj7Ir-105" value="W" style="ellipse;whiteSpace=wrap;html=1;aspect=fixed;" vertex="1" parent="1">
          <mxGeometry x="-987" y="-680" width="40" height="40" as="geometry" />
        </mxCell>
        <mxCell id="GA9b0eAUMchBOjDDj7Ir-106" value="i&lt;span style=&quot;color: rgba(0, 0, 0, 0); font-family: monospace; font-size: 0px; text-align: start; text-wrap-mode: nowrap;&quot;&gt;%3CmxGraphModel%3E%3Croot%3E%3CmxCell%20id%3D%220%22%2F%3E%3CmxCell%20id%3D%221%22%20parent%3D%220%22%2F%3E%3CmxCell%20id%3D%222%22%20value%3D%22l%22%20style%3D%22ellipse%3BwhiteSpace%3Dwrap%3Bhtml%3D1%3Baspect%3Dfixed%3B%22%20vertex%3D%221%22%20parent%3D%221%22%3E%3CmxGeometry%20x%3D%221060%22%20y%3D%22560%22%20width%3D%2240%22%20height%3D%2240%22%20as%3D%22geometry%22%2F%3E%3C%2FmxCell%3E%3C%2Froot%3E%3C%2FmxGraphModel%3E&lt;/span&gt;" style="ellipse;whiteSpace=wrap;html=1;aspect=fixed;" vertex="1" parent="1">
          <mxGeometry x="-1087" y="-620" width="40" height="40" as="geometry" />
        </mxCell>
        <mxCell id="GA9b0eAUMchBOjDDj7Ir-107" value="," style="ellipse;whiteSpace=wrap;html=1;aspect=fixed;" vertex="1" parent="1">
          <mxGeometry x="-1037" y="-620" width="40" height="40" as="geometry" />
        </mxCell>
        <mxCell id="GA9b0eAUMchBOjDDj7Ir-108" value="W" style="ellipse;whiteSpace=wrap;html=1;aspect=fixed;" vertex="1" parent="1">
          <mxGeometry x="-987" y="-620" width="40" height="40" as="geometry" />
        </mxCell>
        <mxCell id="GA9b0eAUMchBOjDDj7Ir-109" value="i&lt;span style=&quot;color: rgba(0, 0, 0, 0); font-family: monospace; font-size: 0px; text-align: start; text-wrap-mode: nowrap;&quot;&gt;%3CmxGraphModel%3E%3Croot%3E%3CmxCell%20id%3D%220%22%2F%3E%3CmxCell%20id%3D%221%22%20parent%3D%220%22%2F%3E%3CmxCell%20id%3D%222%22%20value%3D%22l%22%20style%3D%22ellipse%3BwhiteSpace%3Dwrap%3Bhtml%3D1%3Baspect%3Dfixed%3B%22%20vertex%3D%221%22%20parent%3D%221%22%3E%3CmxGeometry%20x%3D%221060%22%20y%3D%22560%22%20width%3D%2240%22%20height%3D%2240%22%20as%3D%22geometry%22%2F%3E%3C%2FmxCell%3E%3C%2Froot%3E%3C%2FmxGraphModel%3E&lt;/span&gt;" style="ellipse;whiteSpace=wrap;html=1;aspect=fixed;" vertex="1" parent="1">
          <mxGeometry x="-1037" y="-570" width="40" height="40" as="geometry" />
        </mxCell>
        <mxCell id="GA9b0eAUMchBOjDDj7Ir-110" value="" style="endArrow=none;html=1;rounded=0;entryX=0.5;entryY=0;entryDx=0;entryDy=0;exitX=0.5;exitY=1;exitDx=0;exitDy=0;" edge="1" parent="1" source="GA9b0eAUMchBOjDDj7Ir-105" target="GA9b0eAUMchBOjDDj7Ir-108">
          <mxGeometry width="50" height="50" relative="1" as="geometry">
            <mxPoint x="-457" y="-826" as="sourcePoint" />
            <mxPoint x="-457" y="-806" as="targetPoint" />
          </mxGeometry>
        </mxCell>
        <mxCell id="GA9b0eAUMchBOjDDj7Ir-111" value="" style="endArrow=none;html=1;rounded=0;entryX=0.5;entryY=0;entryDx=0;entryDy=0;exitX=0.5;exitY=1;exitDx=0;exitDy=0;" edge="1" parent="1" source="GA9b0eAUMchBOjDDj7Ir-105" target="GA9b0eAUMchBOjDDj7Ir-107">
          <mxGeometry width="50" height="50" relative="1" as="geometry">
            <mxPoint x="-507" y="-766" as="sourcePoint" />
            <mxPoint x="-507" y="-746" as="targetPoint" />
          </mxGeometry>
        </mxCell>
        <mxCell id="GA9b0eAUMchBOjDDj7Ir-112" value="" style="endArrow=none;html=1;rounded=0;entryX=0.5;entryY=0;entryDx=0;entryDy=0;exitX=0.5;exitY=1;exitDx=0;exitDy=0;" edge="1" parent="1" source="GA9b0eAUMchBOjDDj7Ir-105" target="GA9b0eAUMchBOjDDj7Ir-106">
          <mxGeometry width="50" height="50" relative="1" as="geometry">
            <mxPoint x="-507" y="-766" as="sourcePoint" />
            <mxPoint x="-557" y="-746" as="targetPoint" />
          </mxGeometry>
        </mxCell>
        <mxCell id="GA9b0eAUMchBOjDDj7Ir-113" value="" style="endArrow=none;html=1;rounded=0;entryX=0.5;entryY=0;entryDx=0;entryDy=0;exitX=0.5;exitY=1;exitDx=0;exitDy=0;" edge="1" parent="1" source="GA9b0eAUMchBOjDDj7Ir-108" target="GA9b0eAUMchBOjDDj7Ir-109">
          <mxGeometry width="50" height="50" relative="1" as="geometry">
            <mxPoint x="-507" y="-766" as="sourcePoint" />
            <mxPoint x="-607" y="-746" as="targetPoint" />
          </mxGeometry>
        </mxCell>
        <mxCell id="GA9b0eAUMchBOjDDj7Ir-114" value="" style="endArrow=none;html=1;rounded=0;entryX=0.5;entryY=0;entryDx=0;entryDy=0;exitX=0.5;exitY=1;exitDx=0;exitDy=0;" edge="1" parent="1" source="GA9b0eAUMchBOjDDj7Ir-88" target="GA9b0eAUMchBOjDDj7Ir-105">
          <mxGeometry width="50" height="50" relative="1" as="geometry">
            <mxPoint x="-907" y="-695" as="sourcePoint" />
            <mxPoint x="-967" y="-685" as="targetPoint" />
          </mxGeometry>
        </mxCell>
        <mxCell id="GA9b0eAUMchBOjDDj7Ir-115" value="N" style="ellipse;whiteSpace=wrap;html=1;aspect=fixed;" vertex="1" parent="1">
          <mxGeometry x="-837" y="-745" width="40" height="40" as="geometry" />
        </mxCell>
        <mxCell id="GA9b0eAUMchBOjDDj7Ir-116" value="v" style="ellipse;whiteSpace=wrap;html=1;aspect=fixed;" vertex="1" parent="1">
          <mxGeometry x="-987" y="-570" width="40" height="40" as="geometry" />
        </mxCell>
        <mxCell id="GA9b0eAUMchBOjDDj7Ir-117" value="t" style="ellipse;whiteSpace=wrap;html=1;aspect=fixed;" vertex="1" parent="1">
          <mxGeometry x="-937" y="-570" width="40" height="40" as="geometry" />
        </mxCell>
        <mxCell id="GA9b0eAUMchBOjDDj7Ir-118" value="i" style="ellipse;whiteSpace=wrap;html=1;aspect=fixed;" vertex="1" parent="1">
          <mxGeometry x="-887" y="-570" width="40" height="40" as="geometry" />
        </mxCell>
        <mxCell id="GA9b0eAUMchBOjDDj7Ir-119" value="=" style="ellipse;whiteSpace=wrap;html=1;aspect=fixed;" vertex="1" parent="1">
          <mxGeometry x="-837" y="-570" width="40" height="40" as="geometry" />
        </mxCell>
        <mxCell id="GA9b0eAUMchBOjDDj7Ir-120" value="E" style="ellipse;whiteSpace=wrap;html=1;aspect=fixed;" vertex="1" parent="1">
          <mxGeometry x="-787" y="-570" width="40" height="40" as="geometry" />
        </mxCell>
        <mxCell id="GA9b0eAUMchBOjDDj7Ir-121" value=";" style="ellipse;whiteSpace=wrap;html=1;aspect=fixed;" vertex="1" parent="1">
          <mxGeometry x="-737" y="-570" width="40" height="40" as="geometry" />
        </mxCell>
        <mxCell id="GA9b0eAUMchBOjDDj7Ir-122" value="" style="endArrow=none;html=1;rounded=0;exitX=0.5;exitY=1;exitDx=0;exitDy=0;entryX=0.5;entryY=0;entryDx=0;entryDy=0;" edge="1" parent="1" source="GA9b0eAUMchBOjDDj7Ir-115" target="GA9b0eAUMchBOjDDj7Ir-116">
          <mxGeometry width="50" height="50" relative="1" as="geometry">
            <mxPoint x="-613" y="-605" as="sourcePoint" />
            <mxPoint x="-563" y="-655" as="targetPoint" />
          </mxGeometry>
        </mxCell>
        <mxCell id="GA9b0eAUMchBOjDDj7Ir-123" value="" style="endArrow=none;html=1;rounded=0;exitX=0.5;exitY=1;exitDx=0;exitDy=0;entryX=0.5;entryY=0;entryDx=0;entryDy=0;" edge="1" parent="1" source="GA9b0eAUMchBOjDDj7Ir-115" target="GA9b0eAUMchBOjDDj7Ir-117">
          <mxGeometry width="50" height="50" relative="1" as="geometry">
            <mxPoint x="-677" y="-670" as="sourcePoint" />
            <mxPoint x="-543" y="-575" as="targetPoint" />
          </mxGeometry>
        </mxCell>
        <mxCell id="GA9b0eAUMchBOjDDj7Ir-124" value="" style="endArrow=none;html=1;rounded=0;exitX=0.5;exitY=1;exitDx=0;exitDy=0;entryX=0.5;entryY=0;entryDx=0;entryDy=0;" edge="1" parent="1" source="GA9b0eAUMchBOjDDj7Ir-115" target="GA9b0eAUMchBOjDDj7Ir-118">
          <mxGeometry width="50" height="50" relative="1" as="geometry">
            <mxPoint x="-577" y="-670" as="sourcePoint" />
            <mxPoint x="-543" y="-575" as="targetPoint" />
          </mxGeometry>
        </mxCell>
        <mxCell id="GA9b0eAUMchBOjDDj7Ir-125" value="" style="endArrow=none;html=1;rounded=0;exitX=0.5;exitY=1;exitDx=0;exitDy=0;entryX=0.5;entryY=0;entryDx=0;entryDy=0;" edge="1" parent="1" source="GA9b0eAUMchBOjDDj7Ir-115" target="GA9b0eAUMchBOjDDj7Ir-119">
          <mxGeometry width="50" height="50" relative="1" as="geometry">
            <mxPoint x="-577" y="-670" as="sourcePoint" />
            <mxPoint x="-443" y="-575" as="targetPoint" />
          </mxGeometry>
        </mxCell>
        <mxCell id="GA9b0eAUMchBOjDDj7Ir-126" value="" style="endArrow=none;html=1;rounded=0;exitX=0.5;exitY=1;exitDx=0;exitDy=0;entryX=0.5;entryY=0;entryDx=0;entryDy=0;" edge="1" parent="1" source="GA9b0eAUMchBOjDDj7Ir-115" target="GA9b0eAUMchBOjDDj7Ir-120">
          <mxGeometry width="50" height="50" relative="1" as="geometry">
            <mxPoint x="-577" y="-670" as="sourcePoint" />
            <mxPoint x="-433" y="-565" as="targetPoint" />
          </mxGeometry>
        </mxCell>
        <mxCell id="GA9b0eAUMchBOjDDj7Ir-127" value="" style="endArrow=none;html=1;rounded=0;exitX=0.5;exitY=1;exitDx=0;exitDy=0;entryX=0.5;entryY=0;entryDx=0;entryDy=0;" edge="1" parent="1" source="GA9b0eAUMchBOjDDj7Ir-115" target="GA9b0eAUMchBOjDDj7Ir-121">
          <mxGeometry width="50" height="50" relative="1" as="geometry">
            <mxPoint x="-577" y="-670" as="sourcePoint" />
            <mxPoint x="-343" y="-575" as="targetPoint" />
          </mxGeometry>
        </mxCell>
        <mxCell id="GA9b0eAUMchBOjDDj7Ir-128" value="" style="endArrow=none;html=1;rounded=0;exitX=0.5;exitY=1;exitDx=0;exitDy=0;entryX=0.5;entryY=0;entryDx=0;entryDy=0;" edge="1" parent="1" source="GA9b0eAUMchBOjDDj7Ir-115" target="GA9b0eAUMchBOjDDj7Ir-146">
          <mxGeometry width="50" height="50" relative="1" as="geometry">
            <mxPoint x="-577" y="-670" as="sourcePoint" />
            <mxPoint x="-253" y="-585" as="targetPoint" />
          </mxGeometry>
        </mxCell>
        <mxCell id="GA9b0eAUMchBOjDDj7Ir-130" value="i&lt;span style=&quot;color: rgba(0, 0, 0, 0); font-family: monospace; font-size: 0px; text-align: start; text-wrap-mode: nowrap;&quot;&gt;%3CmxGraphModel%3E%3Croot%3E%3CmxCell%20id%3D%220%22%2F%3E%3CmxCell%20id%3D%221%22%20parent%3D%220%22%2F%3E%3CmxCell%20id%3D%222%22%20value%3D%22l%22%20style%3D%22ellipse%3BwhiteSpace%3Dwrap%3Bhtml%3D1%3Baspect%3Dfixed%3B%22%20vertex%3D%221%22%20parent%3D%221%22%3E%3CmxGeometry%20x%3D%221060%22%20y%3D%22560%22%20width%3D%2240%22%20height%3D%2240%22%20as%3D%22geometry%22%2F%3E%3C%2FmxCell%3E%3C%2Froot%3E%3C%2FmxGraphModel%3E&lt;/span&gt;" style="ellipse;whiteSpace=wrap;html=1;aspect=fixed;" vertex="1" parent="1">
          <mxGeometry x="-907" y="-500" width="40" height="40" as="geometry" />
        </mxCell>
        <mxCell id="GA9b0eAUMchBOjDDj7Ir-131" value="(" style="ellipse;whiteSpace=wrap;html=1;aspect=fixed;" vertex="1" parent="1">
          <mxGeometry x="-857" y="-500" width="40" height="40" as="geometry" />
        </mxCell>
        <mxCell id="GA9b0eAUMchBOjDDj7Ir-132" value=")" style="ellipse;whiteSpace=wrap;html=1;aspect=fixed;" vertex="1" parent="1">
          <mxGeometry x="-757" y="-500" width="40" height="40" as="geometry" />
        </mxCell>
        <mxCell id="GA9b0eAUMchBOjDDj7Ir-133" value="" style="endArrow=none;html=1;rounded=0;exitX=0.5;exitY=1;exitDx=0;exitDy=0;entryX=0.5;entryY=0;entryDx=0;entryDy=0;" edge="1" parent="1" source="GA9b0eAUMchBOjDDj7Ir-120" target="GA9b0eAUMchBOjDDj7Ir-130">
          <mxGeometry width="50" height="50" relative="1" as="geometry">
            <mxPoint x="-597" y="-640" as="sourcePoint" />
            <mxPoint x="-937" y="-459.9999999999999" as="targetPoint" />
          </mxGeometry>
        </mxCell>
        <mxCell id="GA9b0eAUMchBOjDDj7Ir-134" value="" style="endArrow=none;html=1;rounded=0;entryX=0.5;entryY=0;entryDx=0;entryDy=0;exitX=0.5;exitY=1;exitDx=0;exitDy=0;" edge="1" parent="1" source="GA9b0eAUMchBOjDDj7Ir-120" target="GA9b0eAUMchBOjDDj7Ir-131">
          <mxGeometry width="50" height="50" relative="1" as="geometry">
            <mxPoint x="-597" y="-480" as="sourcePoint" />
            <mxPoint x="-887" y="-459.9999999999999" as="targetPoint" />
          </mxGeometry>
        </mxCell>
        <mxCell id="GA9b0eAUMchBOjDDj7Ir-135" value="" style="endArrow=none;html=1;rounded=0;entryX=0.5;entryY=0;entryDx=0;entryDy=0;exitX=0.5;exitY=1;exitDx=0;exitDy=0;" edge="1" parent="1" source="GA9b0eAUMchBOjDDj7Ir-120" target="GA9b0eAUMchBOjDDj7Ir-132">
          <mxGeometry width="50" height="50" relative="1" as="geometry">
            <mxPoint x="-607" y="-480" as="sourcePoint" />
            <mxPoint x="-837" y="-459.9999999999999" as="targetPoint" />
          </mxGeometry>
        </mxCell>
        <mxCell id="GA9b0eAUMchBOjDDj7Ir-136" value="W" style="ellipse;whiteSpace=wrap;html=1;aspect=fixed;" vertex="1" parent="1">
          <mxGeometry x="-807" y="-500" width="40" height="40" as="geometry" />
        </mxCell>
        <mxCell id="GA9b0eAUMchBOjDDj7Ir-137" value="i&lt;span style=&quot;color: rgba(0, 0, 0, 0); font-family: monospace; font-size: 0px; text-align: start; text-wrap-mode: nowrap;&quot;&gt;%3CmxGraphModel%3E%3Croot%3E%3CmxCell%20id%3D%220%22%2F%3E%3CmxCell%20id%3D%221%22%20parent%3D%220%22%2F%3E%3CmxCell%20id%3D%222%22%20value%3D%22l%22%20style%3D%22ellipse%3BwhiteSpace%3Dwrap%3Bhtml%3D1%3Baspect%3Dfixed%3B%22%20vertex%3D%221%22%20parent%3D%221%22%3E%3CmxGeometry%20x%3D%221060%22%20y%3D%22560%22%20width%3D%2240%22%20height%3D%2240%22%20as%3D%22geometry%22%2F%3E%3C%2FmxCell%3E%3C%2Froot%3E%3C%2FmxGraphModel%3E&lt;/span&gt;" style="ellipse;whiteSpace=wrap;html=1;aspect=fixed;" vertex="1" parent="1">
          <mxGeometry x="-907" y="-440" width="40" height="40" as="geometry" />
        </mxCell>
        <mxCell id="GA9b0eAUMchBOjDDj7Ir-138" value="," style="ellipse;whiteSpace=wrap;html=1;aspect=fixed;" vertex="1" parent="1">
          <mxGeometry x="-857" y="-440" width="40" height="40" as="geometry" />
        </mxCell>
        <mxCell id="GA9b0eAUMchBOjDDj7Ir-139" value="W" style="ellipse;whiteSpace=wrap;html=1;aspect=fixed;" vertex="1" parent="1">
          <mxGeometry x="-807" y="-440" width="40" height="40" as="geometry" />
        </mxCell>
        <mxCell id="GA9b0eAUMchBOjDDj7Ir-140" value="i&lt;span style=&quot;color: rgba(0, 0, 0, 0); font-family: monospace; font-size: 0px; text-align: start; text-wrap-mode: nowrap;&quot;&gt;%3CmxGraphModel%3E%3Croot%3E%3CmxCell%20id%3D%220%22%2F%3E%3CmxCell%20id%3D%221%22%20parent%3D%220%22%2F%3E%3CmxCell%20id%3D%222%22%20value%3D%22l%22%20style%3D%22ellipse%3BwhiteSpace%3Dwrap%3Bhtml%3D1%3Baspect%3Dfixed%3B%22%20vertex%3D%221%22%20parent%3D%221%22%3E%3CmxGeometry%20x%3D%221060%22%20y%3D%22560%22%20width%3D%2240%22%20height%3D%2240%22%20as%3D%22geometry%22%2F%3E%3C%2FmxCell%3E%3C%2Froot%3E%3C%2FmxGraphModel%3E&lt;/span&gt;" style="ellipse;whiteSpace=wrap;html=1;aspect=fixed;" vertex="1" parent="1">
          <mxGeometry x="-857" y="-390" width="40" height="40" as="geometry" />
        </mxCell>
        <mxCell id="GA9b0eAUMchBOjDDj7Ir-141" value="" style="endArrow=none;html=1;rounded=0;entryX=0.5;entryY=0;entryDx=0;entryDy=0;exitX=0.5;exitY=1;exitDx=0;exitDy=0;" edge="1" parent="1" source="GA9b0eAUMchBOjDDj7Ir-136" target="GA9b0eAUMchBOjDDj7Ir-139">
          <mxGeometry width="50" height="50" relative="1" as="geometry">
            <mxPoint x="-277" y="-646" as="sourcePoint" />
            <mxPoint x="-277" y="-626" as="targetPoint" />
          </mxGeometry>
        </mxCell>
        <mxCell id="GA9b0eAUMchBOjDDj7Ir-142" value="" style="endArrow=none;html=1;rounded=0;entryX=0.5;entryY=0;entryDx=0;entryDy=0;exitX=0.5;exitY=1;exitDx=0;exitDy=0;" edge="1" parent="1" source="GA9b0eAUMchBOjDDj7Ir-136" target="GA9b0eAUMchBOjDDj7Ir-138">
          <mxGeometry width="50" height="50" relative="1" as="geometry">
            <mxPoint x="-327" y="-586" as="sourcePoint" />
            <mxPoint x="-327" y="-566" as="targetPoint" />
          </mxGeometry>
        </mxCell>
        <mxCell id="GA9b0eAUMchBOjDDj7Ir-143" value="" style="endArrow=none;html=1;rounded=0;entryX=0.5;entryY=0;entryDx=0;entryDy=0;exitX=0.5;exitY=1;exitDx=0;exitDy=0;" edge="1" parent="1" source="GA9b0eAUMchBOjDDj7Ir-136" target="GA9b0eAUMchBOjDDj7Ir-137">
          <mxGeometry width="50" height="50" relative="1" as="geometry">
            <mxPoint x="-327" y="-586" as="sourcePoint" />
            <mxPoint x="-377" y="-566" as="targetPoint" />
          </mxGeometry>
        </mxCell>
        <mxCell id="GA9b0eAUMchBOjDDj7Ir-144" value="" style="endArrow=none;html=1;rounded=0;entryX=0.5;entryY=0;entryDx=0;entryDy=0;exitX=0.5;exitY=1;exitDx=0;exitDy=0;" edge="1" parent="1" source="GA9b0eAUMchBOjDDj7Ir-139" target="GA9b0eAUMchBOjDDj7Ir-140">
          <mxGeometry width="50" height="50" relative="1" as="geometry">
            <mxPoint x="-327" y="-586" as="sourcePoint" />
            <mxPoint x="-427" y="-566" as="targetPoint" />
          </mxGeometry>
        </mxCell>
        <mxCell id="GA9b0eAUMchBOjDDj7Ir-145" value="" style="endArrow=none;html=1;rounded=0;entryX=0.5;entryY=0;entryDx=0;entryDy=0;exitX=0.5;exitY=1;exitDx=0;exitDy=0;" edge="1" parent="1" source="GA9b0eAUMchBOjDDj7Ir-120" target="GA9b0eAUMchBOjDDj7Ir-136">
          <mxGeometry width="50" height="50" relative="1" as="geometry">
            <mxPoint x="-777" y="-510" as="sourcePoint" />
            <mxPoint x="-727" y="-490" as="targetPoint" />
          </mxGeometry>
        </mxCell>
        <mxCell id="GA9b0eAUMchBOjDDj7Ir-146" value="N" style="ellipse;whiteSpace=wrap;html=1;aspect=fixed;" vertex="1" parent="1">
          <mxGeometry x="-687" y="-570" width="40" height="40" as="geometry" />
        </mxCell>
        <mxCell id="GA9b0eAUMchBOjDDj7Ir-147" value="v" style="ellipse;whiteSpace=wrap;html=1;aspect=fixed;" vertex="1" parent="1">
          <mxGeometry x="-757" y="-440" width="40" height="40" as="geometry" />
        </mxCell>
        <mxCell id="GA9b0eAUMchBOjDDj7Ir-148" value="t" style="ellipse;whiteSpace=wrap;html=1;aspect=fixed;" vertex="1" parent="1">
          <mxGeometry x="-707" y="-440" width="40" height="40" as="geometry" />
        </mxCell>
        <mxCell id="GA9b0eAUMchBOjDDj7Ir-149" value="i" style="ellipse;whiteSpace=wrap;html=1;aspect=fixed;" vertex="1" parent="1">
          <mxGeometry x="-657" y="-440" width="40" height="40" as="geometry" />
        </mxCell>
        <mxCell id="GA9b0eAUMchBOjDDj7Ir-150" value="=" style="ellipse;whiteSpace=wrap;html=1;aspect=fixed;" vertex="1" parent="1">
          <mxGeometry x="-607" y="-440" width="40" height="40" as="geometry" />
        </mxCell>
        <mxCell id="GA9b0eAUMchBOjDDj7Ir-151" value="E" style="ellipse;whiteSpace=wrap;html=1;aspect=fixed;" vertex="1" parent="1">
          <mxGeometry x="-557" y="-440" width="40" height="40" as="geometry" />
        </mxCell>
        <mxCell id="GA9b0eAUMchBOjDDj7Ir-152" value=";" style="ellipse;whiteSpace=wrap;html=1;aspect=fixed;" vertex="1" parent="1">
          <mxGeometry x="-507" y="-440" width="40" height="40" as="geometry" />
        </mxCell>
        <mxCell id="GA9b0eAUMchBOjDDj7Ir-153" value="" style="endArrow=none;html=1;rounded=0;exitX=0.5;exitY=1;exitDx=0;exitDy=0;entryX=0.5;entryY=0;entryDx=0;entryDy=0;" edge="1" parent="1" source="GA9b0eAUMchBOjDDj7Ir-146" target="GA9b0eAUMchBOjDDj7Ir-147">
          <mxGeometry width="50" height="50" relative="1" as="geometry">
            <mxPoint x="-463" y="-435" as="sourcePoint" />
            <mxPoint x="-413" y="-485" as="targetPoint" />
          </mxGeometry>
        </mxCell>
        <mxCell id="GA9b0eAUMchBOjDDj7Ir-154" value="" style="endArrow=none;html=1;rounded=0;exitX=0.5;exitY=1;exitDx=0;exitDy=0;entryX=0.5;entryY=0;entryDx=0;entryDy=0;" edge="1" parent="1" source="GA9b0eAUMchBOjDDj7Ir-146" target="GA9b0eAUMchBOjDDj7Ir-148">
          <mxGeometry width="50" height="50" relative="1" as="geometry">
            <mxPoint x="-527" y="-500" as="sourcePoint" />
            <mxPoint x="-393" y="-405" as="targetPoint" />
          </mxGeometry>
        </mxCell>
        <mxCell id="GA9b0eAUMchBOjDDj7Ir-155" value="" style="endArrow=none;html=1;rounded=0;exitX=0.5;exitY=1;exitDx=0;exitDy=0;entryX=0.5;entryY=0;entryDx=0;entryDy=0;" edge="1" parent="1" source="GA9b0eAUMchBOjDDj7Ir-146" target="GA9b0eAUMchBOjDDj7Ir-149">
          <mxGeometry width="50" height="50" relative="1" as="geometry">
            <mxPoint x="-427" y="-500" as="sourcePoint" />
            <mxPoint x="-393" y="-405" as="targetPoint" />
          </mxGeometry>
        </mxCell>
        <mxCell id="GA9b0eAUMchBOjDDj7Ir-156" value="" style="endArrow=none;html=1;rounded=0;exitX=0.5;exitY=1;exitDx=0;exitDy=0;entryX=0.5;entryY=0;entryDx=0;entryDy=0;" edge="1" parent="1" source="GA9b0eAUMchBOjDDj7Ir-146" target="GA9b0eAUMchBOjDDj7Ir-150">
          <mxGeometry width="50" height="50" relative="1" as="geometry">
            <mxPoint x="-427" y="-500" as="sourcePoint" />
            <mxPoint x="-293" y="-405" as="targetPoint" />
          </mxGeometry>
        </mxCell>
        <mxCell id="GA9b0eAUMchBOjDDj7Ir-157" value="" style="endArrow=none;html=1;rounded=0;exitX=0.5;exitY=1;exitDx=0;exitDy=0;entryX=0.5;entryY=0;entryDx=0;entryDy=0;" edge="1" parent="1" source="GA9b0eAUMchBOjDDj7Ir-146" target="GA9b0eAUMchBOjDDj7Ir-151">
          <mxGeometry width="50" height="50" relative="1" as="geometry">
            <mxPoint x="-427" y="-500" as="sourcePoint" />
            <mxPoint x="-283" y="-395" as="targetPoint" />
          </mxGeometry>
        </mxCell>
        <mxCell id="GA9b0eAUMchBOjDDj7Ir-158" value="" style="endArrow=none;html=1;rounded=0;exitX=0.5;exitY=1;exitDx=0;exitDy=0;entryX=0.5;entryY=0;entryDx=0;entryDy=0;" edge="1" parent="1" source="GA9b0eAUMchBOjDDj7Ir-146" target="GA9b0eAUMchBOjDDj7Ir-152">
          <mxGeometry width="50" height="50" relative="1" as="geometry">
            <mxPoint x="-427" y="-500" as="sourcePoint" />
            <mxPoint x="-193" y="-405" as="targetPoint" />
          </mxGeometry>
        </mxCell>
        <mxCell id="GA9b0eAUMchBOjDDj7Ir-159" value="" style="endArrow=none;html=1;rounded=0;exitX=0.5;exitY=1;exitDx=0;exitDy=0;entryX=0.5;entryY=0;entryDx=0;entryDy=0;" edge="1" parent="1" source="GA9b0eAUMchBOjDDj7Ir-146" target="GA9b0eAUMchBOjDDj7Ir-160">
          <mxGeometry width="50" height="50" relative="1" as="geometry">
            <mxPoint x="-427" y="-500" as="sourcePoint" />
            <mxPoint x="-103" y="-415" as="targetPoint" />
          </mxGeometry>
        </mxCell>
        <mxCell id="GA9b0eAUMchBOjDDj7Ir-160" value="N" style="ellipse;whiteSpace=wrap;html=1;aspect=fixed;" vertex="1" parent="1">
          <mxGeometry x="-457" y="-440" width="40" height="40" as="geometry" />
        </mxCell>
        <mxCell id="GA9b0eAUMchBOjDDj7Ir-161" value="i&lt;span style=&quot;color: rgba(0, 0, 0, 0); font-family: monospace; font-size: 0px; text-align: start; text-wrap-mode: nowrap;&quot;&gt;%3CmxGraphModel%3E%3Croot%3E%3CmxCell%20id%3D%220%22%2F%3E%3CmxCell%20id%3D%221%22%20parent%3D%220%22%2F%3E%3CmxCell%20id%3D%222%22%20value%3D%22l%22%20style%3D%22ellipse%3BwhiteSpace%3Dwrap%3Bhtml%3D1%3Baspect%3Dfixed%3B%22%20vertex%3D%221%22%20parent%3D%221%22%3E%3CmxGeometry%20x%3D%221060%22%20y%3D%22560%22%20width%3D%2240%22%20height%3D%2240%22%20as%3D%22geometry%22%2F%3E%3C%2FmxCell%3E%3C%2Froot%3E%3C%2FmxGraphModel%3E&lt;/span&gt;" style="ellipse;whiteSpace=wrap;html=1;aspect=fixed;" vertex="1" parent="1">
          <mxGeometry x="-657" y="-380" width="40" height="40" as="geometry" />
        </mxCell>
        <mxCell id="GA9b0eAUMchBOjDDj7Ir-162" value="(" style="ellipse;whiteSpace=wrap;html=1;aspect=fixed;" vertex="1" parent="1">
          <mxGeometry x="-607" y="-380" width="40" height="40" as="geometry" />
        </mxCell>
        <mxCell id="GA9b0eAUMchBOjDDj7Ir-163" value=")" style="ellipse;whiteSpace=wrap;html=1;aspect=fixed;" vertex="1" parent="1">
          <mxGeometry x="-507" y="-380" width="40" height="40" as="geometry" />
        </mxCell>
        <mxCell id="GA9b0eAUMchBOjDDj7Ir-164" value="" style="endArrow=none;html=1;rounded=0;exitX=0.5;exitY=1;exitDx=0;exitDy=0;entryX=0.5;entryY=0;entryDx=0;entryDy=0;" edge="1" parent="1" source="GA9b0eAUMchBOjDDj7Ir-151" target="GA9b0eAUMchBOjDDj7Ir-161">
          <mxGeometry width="50" height="50" relative="1" as="geometry">
            <mxPoint x="-347" y="-520" as="sourcePoint" />
            <mxPoint x="-687" y="-339.9999999999999" as="targetPoint" />
          </mxGeometry>
        </mxCell>
        <mxCell id="GA9b0eAUMchBOjDDj7Ir-165" value="" style="endArrow=none;html=1;rounded=0;entryX=0.5;entryY=0;entryDx=0;entryDy=0;exitX=0.5;exitY=1;exitDx=0;exitDy=0;" edge="1" parent="1" source="GA9b0eAUMchBOjDDj7Ir-151" target="GA9b0eAUMchBOjDDj7Ir-162">
          <mxGeometry width="50" height="50" relative="1" as="geometry">
            <mxPoint x="-347" y="-360" as="sourcePoint" />
            <mxPoint x="-637" y="-339.9999999999999" as="targetPoint" />
          </mxGeometry>
        </mxCell>
        <mxCell id="GA9b0eAUMchBOjDDj7Ir-166" value="" style="endArrow=none;html=1;rounded=0;entryX=0.5;entryY=0;entryDx=0;entryDy=0;exitX=0.5;exitY=1;exitDx=0;exitDy=0;" edge="1" parent="1" source="GA9b0eAUMchBOjDDj7Ir-151" target="GA9b0eAUMchBOjDDj7Ir-163">
          <mxGeometry width="50" height="50" relative="1" as="geometry">
            <mxPoint x="-357" y="-360" as="sourcePoint" />
            <mxPoint x="-587" y="-339.9999999999999" as="targetPoint" />
          </mxGeometry>
        </mxCell>
        <mxCell id="GA9b0eAUMchBOjDDj7Ir-167" value="W" style="ellipse;whiteSpace=wrap;html=1;aspect=fixed;" vertex="1" parent="1">
          <mxGeometry x="-557" y="-380" width="40" height="40" as="geometry" />
        </mxCell>
        <mxCell id="GA9b0eAUMchBOjDDj7Ir-168" value="i&lt;span style=&quot;color: rgba(0, 0, 0, 0); font-family: monospace; font-size: 0px; text-align: start; text-wrap-mode: nowrap;&quot;&gt;%3CmxGraphModel%3E%3Croot%3E%3CmxCell%20id%3D%220%22%2F%3E%3CmxCell%20id%3D%221%22%20parent%3D%220%22%2F%3E%3CmxCell%20id%3D%222%22%20value%3D%22l%22%20style%3D%22ellipse%3BwhiteSpace%3Dwrap%3Bhtml%3D1%3Baspect%3Dfixed%3B%22%20vertex%3D%221%22%20parent%3D%221%22%3E%3CmxGeometry%20x%3D%221060%22%20y%3D%22560%22%20width%3D%2240%22%20height%3D%2240%22%20as%3D%22geometry%22%2F%3E%3C%2FmxCell%3E%3C%2Froot%3E%3C%2FmxGraphModel%3E&lt;/span&gt;" style="ellipse;whiteSpace=wrap;html=1;aspect=fixed;" vertex="1" parent="1">
          <mxGeometry x="-657" y="-320" width="40" height="40" as="geometry" />
        </mxCell>
        <mxCell id="GA9b0eAUMchBOjDDj7Ir-169" value="," style="ellipse;whiteSpace=wrap;html=1;aspect=fixed;" vertex="1" parent="1">
          <mxGeometry x="-607" y="-320" width="40" height="40" as="geometry" />
        </mxCell>
        <mxCell id="GA9b0eAUMchBOjDDj7Ir-170" value="W" style="ellipse;whiteSpace=wrap;html=1;aspect=fixed;" vertex="1" parent="1">
          <mxGeometry x="-557" y="-320" width="40" height="40" as="geometry" />
        </mxCell>
        <mxCell id="GA9b0eAUMchBOjDDj7Ir-171" value="i&lt;span style=&quot;color: rgba(0, 0, 0, 0); font-family: monospace; font-size: 0px; text-align: start; text-wrap-mode: nowrap;&quot;&gt;%3CmxGraphModel%3E%3Croot%3E%3CmxCell%20id%3D%220%22%2F%3E%3CmxCell%20id%3D%221%22%20parent%3D%220%22%2F%3E%3CmxCell%20id%3D%222%22%20value%3D%22l%22%20style%3D%22ellipse%3BwhiteSpace%3Dwrap%3Bhtml%3D1%3Baspect%3Dfixed%3B%22%20vertex%3D%221%22%20parent%3D%221%22%3E%3CmxGeometry%20x%3D%221060%22%20y%3D%22560%22%20width%3D%2240%22%20height%3D%2240%22%20as%3D%22geometry%22%2F%3E%3C%2FmxCell%3E%3C%2Froot%3E%3C%2FmxGraphModel%3E&lt;/span&gt;" style="ellipse;whiteSpace=wrap;html=1;aspect=fixed;" vertex="1" parent="1">
          <mxGeometry x="-607" y="-270" width="40" height="40" as="geometry" />
        </mxCell>
        <mxCell id="GA9b0eAUMchBOjDDj7Ir-172" value="" style="endArrow=none;html=1;rounded=0;entryX=0.5;entryY=0;entryDx=0;entryDy=0;exitX=0.5;exitY=1;exitDx=0;exitDy=0;" edge="1" parent="1" source="GA9b0eAUMchBOjDDj7Ir-167" target="GA9b0eAUMchBOjDDj7Ir-170">
          <mxGeometry width="50" height="50" relative="1" as="geometry">
            <mxPoint x="-27" y="-526" as="sourcePoint" />
            <mxPoint x="-27" y="-506" as="targetPoint" />
          </mxGeometry>
        </mxCell>
        <mxCell id="GA9b0eAUMchBOjDDj7Ir-173" value="" style="endArrow=none;html=1;rounded=0;entryX=0.5;entryY=0;entryDx=0;entryDy=0;exitX=0.5;exitY=1;exitDx=0;exitDy=0;" edge="1" parent="1" source="GA9b0eAUMchBOjDDj7Ir-167" target="GA9b0eAUMchBOjDDj7Ir-169">
          <mxGeometry width="50" height="50" relative="1" as="geometry">
            <mxPoint x="-77" y="-466" as="sourcePoint" />
            <mxPoint x="-77" y="-446" as="targetPoint" />
          </mxGeometry>
        </mxCell>
        <mxCell id="GA9b0eAUMchBOjDDj7Ir-174" value="" style="endArrow=none;html=1;rounded=0;entryX=0.5;entryY=0;entryDx=0;entryDy=0;exitX=0.5;exitY=1;exitDx=0;exitDy=0;" edge="1" parent="1" source="GA9b0eAUMchBOjDDj7Ir-167" target="GA9b0eAUMchBOjDDj7Ir-168">
          <mxGeometry width="50" height="50" relative="1" as="geometry">
            <mxPoint x="-77" y="-466" as="sourcePoint" />
            <mxPoint x="-127" y="-446" as="targetPoint" />
          </mxGeometry>
        </mxCell>
        <mxCell id="GA9b0eAUMchBOjDDj7Ir-175" value="" style="endArrow=none;html=1;rounded=0;entryX=0.5;entryY=0;entryDx=0;entryDy=0;exitX=0.5;exitY=1;exitDx=0;exitDy=0;" edge="1" parent="1" source="GA9b0eAUMchBOjDDj7Ir-170" target="GA9b0eAUMchBOjDDj7Ir-171">
          <mxGeometry width="50" height="50" relative="1" as="geometry">
            <mxPoint x="-77" y="-466" as="sourcePoint" />
            <mxPoint x="-177" y="-446" as="targetPoint" />
          </mxGeometry>
        </mxCell>
        <mxCell id="GA9b0eAUMchBOjDDj7Ir-176" value="" style="endArrow=none;html=1;rounded=0;entryX=0.5;entryY=0;entryDx=0;entryDy=0;exitX=0.5;exitY=1;exitDx=0;exitDy=0;" edge="1" parent="1" source="GA9b0eAUMchBOjDDj7Ir-151" target="GA9b0eAUMchBOjDDj7Ir-167">
          <mxGeometry width="50" height="50" relative="1" as="geometry">
            <mxPoint x="-527" y="-390" as="sourcePoint" />
            <mxPoint x="-477" y="-370" as="targetPoint" />
          </mxGeometry>
        </mxCell>
        <mxCell id="GA9b0eAUMchBOjDDj7Ir-177" value="v" style="ellipse;whiteSpace=wrap;html=1;aspect=fixed;" vertex="1" parent="1">
          <mxGeometry x="-457" y="-380" width="40" height="40" as="geometry" />
        </mxCell>
        <mxCell id="GA9b0eAUMchBOjDDj7Ir-178" value="t" style="ellipse;whiteSpace=wrap;html=1;aspect=fixed;" vertex="1" parent="1">
          <mxGeometry x="-407" y="-380" width="40" height="40" as="geometry" />
        </mxCell>
        <mxCell id="GA9b0eAUMchBOjDDj7Ir-179" value="i" style="ellipse;whiteSpace=wrap;html=1;aspect=fixed;" vertex="1" parent="1">
          <mxGeometry x="-357" y="-380" width="40" height="40" as="geometry" />
        </mxCell>
        <mxCell id="GA9b0eAUMchBOjDDj7Ir-180" value="=" style="ellipse;whiteSpace=wrap;html=1;aspect=fixed;" vertex="1" parent="1">
          <mxGeometry x="-307" y="-380" width="40" height="40" as="geometry" />
        </mxCell>
        <mxCell id="GA9b0eAUMchBOjDDj7Ir-181" value="E" style="ellipse;whiteSpace=wrap;html=1;aspect=fixed;" vertex="1" parent="1">
          <mxGeometry x="-257" y="-380" width="40" height="40" as="geometry" />
        </mxCell>
        <mxCell id="GA9b0eAUMchBOjDDj7Ir-183" value=";" style="ellipse;whiteSpace=wrap;html=1;aspect=fixed;" vertex="1" parent="1">
          <mxGeometry x="-210" y="-380" width="40" height="40" as="geometry" />
        </mxCell>
        <mxCell id="GA9b0eAUMchBOjDDj7Ir-184" value="" style="endArrow=none;html=1;rounded=0;exitX=0.5;exitY=0;exitDx=0;exitDy=0;entryX=0.5;entryY=1;entryDx=0;entryDy=0;" edge="1" parent="1" source="GA9b0eAUMchBOjDDj7Ir-177" target="GA9b0eAUMchBOjDDj7Ir-160">
          <mxGeometry width="50" height="50" relative="1" as="geometry">
            <mxPoint x="-657" y="-520" as="sourcePoint" />
            <mxPoint x="-477" y="-430" as="targetPoint" />
          </mxGeometry>
        </mxCell>
        <mxCell id="GA9b0eAUMchBOjDDj7Ir-185" value="" style="endArrow=none;html=1;rounded=0;exitX=0.5;exitY=0;exitDx=0;exitDy=0;entryX=0.5;entryY=1;entryDx=0;entryDy=0;" edge="1" parent="1" source="GA9b0eAUMchBOjDDj7Ir-178" target="GA9b0eAUMchBOjDDj7Ir-160">
          <mxGeometry width="50" height="50" relative="1" as="geometry">
            <mxPoint x="-427" y="-370" as="sourcePoint" />
            <mxPoint x="-427" y="-390" as="targetPoint" />
          </mxGeometry>
        </mxCell>
        <mxCell id="GA9b0eAUMchBOjDDj7Ir-186" value="" style="endArrow=none;html=1;rounded=0;exitX=0.5;exitY=0;exitDx=0;exitDy=0;entryX=0.5;entryY=1;entryDx=0;entryDy=0;" edge="1" parent="1" source="GA9b0eAUMchBOjDDj7Ir-179" target="GA9b0eAUMchBOjDDj7Ir-160">
          <mxGeometry width="50" height="50" relative="1" as="geometry">
            <mxPoint x="-377" y="-370" as="sourcePoint" />
            <mxPoint x="-427" y="-390" as="targetPoint" />
          </mxGeometry>
        </mxCell>
        <mxCell id="GA9b0eAUMchBOjDDj7Ir-187" value="" style="endArrow=none;html=1;rounded=0;exitX=0.5;exitY=0;exitDx=0;exitDy=0;entryX=0.5;entryY=1;entryDx=0;entryDy=0;" edge="1" parent="1" source="GA9b0eAUMchBOjDDj7Ir-180" target="GA9b0eAUMchBOjDDj7Ir-160">
          <mxGeometry width="50" height="50" relative="1" as="geometry">
            <mxPoint x="-327" y="-370" as="sourcePoint" />
            <mxPoint x="-427" y="-390" as="targetPoint" />
          </mxGeometry>
        </mxCell>
        <mxCell id="GA9b0eAUMchBOjDDj7Ir-188" value="" style="endArrow=none;html=1;rounded=0;exitX=0.5;exitY=0;exitDx=0;exitDy=0;entryX=0.5;entryY=1;entryDx=0;entryDy=0;" edge="1" parent="1" source="GA9b0eAUMchBOjDDj7Ir-181" target="GA9b0eAUMchBOjDDj7Ir-160">
          <mxGeometry width="50" height="50" relative="1" as="geometry">
            <mxPoint x="-277" y="-370" as="sourcePoint" />
            <mxPoint x="-427" y="-390" as="targetPoint" />
          </mxGeometry>
        </mxCell>
        <mxCell id="GA9b0eAUMchBOjDDj7Ir-190" value="" style="endArrow=none;html=1;rounded=0;exitX=0.5;exitY=0;exitDx=0;exitDy=0;entryX=0.5;entryY=1;entryDx=0;entryDy=0;" edge="1" parent="1" source="GA9b0eAUMchBOjDDj7Ir-183" target="GA9b0eAUMchBOjDDj7Ir-160">
          <mxGeometry width="50" height="50" relative="1" as="geometry">
            <mxPoint x="-177" y="-370" as="sourcePoint" />
            <mxPoint x="-427" y="-390" as="targetPoint" />
          </mxGeometry>
        </mxCell>
        <mxCell id="GA9b0eAUMchBOjDDj7Ir-191" value="(" style="ellipse;whiteSpace=wrap;html=1;aspect=fixed;" vertex="1" parent="1">
          <mxGeometry x="-407" y="-320" width="40" height="40" as="geometry" />
        </mxCell>
        <mxCell id="GA9b0eAUMchBOjDDj7Ir-192" value="E" style="ellipse;whiteSpace=wrap;html=1;aspect=fixed;" vertex="1" parent="1">
          <mxGeometry x="-357" y="-320" width="40" height="40" as="geometry" />
        </mxCell>
        <mxCell id="GA9b0eAUMchBOjDDj7Ir-193" value=")" style="ellipse;whiteSpace=wrap;html=1;aspect=fixed;" vertex="1" parent="1">
          <mxGeometry x="-307" y="-320" width="40" height="40" as="geometry" />
        </mxCell>
        <mxCell id="GA9b0eAUMchBOjDDj7Ir-194" value="M" style="ellipse;whiteSpace=wrap;html=1;aspect=fixed;" vertex="1" parent="1">
          <mxGeometry x="-257" y="-320" width="40" height="40" as="geometry" />
        </mxCell>
        <mxCell id="GA9b0eAUMchBOjDDj7Ir-195" value="" style="endArrow=none;html=1;rounded=0;exitX=0.5;exitY=0;exitDx=0;exitDy=0;entryX=0.5;entryY=1;entryDx=0;entryDy=0;" edge="1" parent="1" source="GA9b0eAUMchBOjDDj7Ir-191" target="GA9b0eAUMchBOjDDj7Ir-181">
          <mxGeometry width="50" height="50" relative="1" as="geometry">
            <mxPoint x="-427" y="-370" as="sourcePoint" />
            <mxPoint x="-427" y="-390" as="targetPoint" />
          </mxGeometry>
        </mxCell>
        <mxCell id="GA9b0eAUMchBOjDDj7Ir-196" value="" style="endArrow=none;html=1;rounded=0;exitX=0.5;exitY=0;exitDx=0;exitDy=0;entryX=0.5;entryY=1;entryDx=0;entryDy=0;" edge="1" parent="1" source="GA9b0eAUMchBOjDDj7Ir-192" target="GA9b0eAUMchBOjDDj7Ir-181">
          <mxGeometry width="50" height="50" relative="1" as="geometry">
            <mxPoint x="-327" y="-310" as="sourcePoint" />
            <mxPoint x="-227" y="-330" as="targetPoint" />
          </mxGeometry>
        </mxCell>
        <mxCell id="GA9b0eAUMchBOjDDj7Ir-197" value="" style="endArrow=none;html=1;rounded=0;exitX=0.5;exitY=0;exitDx=0;exitDy=0;entryX=0.5;entryY=1;entryDx=0;entryDy=0;" edge="1" parent="1" source="GA9b0eAUMchBOjDDj7Ir-193" target="GA9b0eAUMchBOjDDj7Ir-181">
          <mxGeometry width="50" height="50" relative="1" as="geometry">
            <mxPoint x="-277" y="-310" as="sourcePoint" />
            <mxPoint x="-227" y="-330" as="targetPoint" />
          </mxGeometry>
        </mxCell>
        <mxCell id="GA9b0eAUMchBOjDDj7Ir-198" value="" style="endArrow=none;html=1;rounded=0;exitX=0.5;exitY=0;exitDx=0;exitDy=0;entryX=0.5;entryY=1;entryDx=0;entryDy=0;" edge="1" parent="1" source="GA9b0eAUMchBOjDDj7Ir-194" target="GA9b0eAUMchBOjDDj7Ir-181">
          <mxGeometry width="50" height="50" relative="1" as="geometry">
            <mxPoint x="-227" y="-310" as="sourcePoint" />
            <mxPoint x="-227" y="-330" as="targetPoint" />
          </mxGeometry>
        </mxCell>
        <mxCell id="GA9b0eAUMchBOjDDj7Ir-199" value="i" style="ellipse;whiteSpace=wrap;html=1;aspect=fixed;" vertex="1" parent="1">
          <mxGeometry x="-407" y="-260" width="40" height="40" as="geometry" />
        </mxCell>
        <mxCell id="GA9b0eAUMchBOjDDj7Ir-200" value="M" style="ellipse;whiteSpace=wrap;html=1;aspect=fixed;" vertex="1" parent="1">
          <mxGeometry x="-357" y="-260" width="40" height="40" as="geometry" />
        </mxCell>
        <mxCell id="GA9b0eAUMchBOjDDj7Ir-201" value="" style="endArrow=none;html=1;rounded=0;exitX=0.5;exitY=0;exitDx=0;exitDy=0;entryX=0.5;entryY=1;entryDx=0;entryDy=0;" edge="1" parent="1" source="GA9b0eAUMchBOjDDj7Ir-200" target="GA9b0eAUMchBOjDDj7Ir-192">
          <mxGeometry width="50" height="50" relative="1" as="geometry">
            <mxPoint x="-327" y="-310" as="sourcePoint" />
            <mxPoint x="-227" y="-330" as="targetPoint" />
          </mxGeometry>
        </mxCell>
        <mxCell id="GA9b0eAUMchBOjDDj7Ir-202" value="" style="endArrow=none;html=1;rounded=0;exitX=0.5;exitY=0;exitDx=0;exitDy=0;entryX=0.5;entryY=1;entryDx=0;entryDy=0;" edge="1" parent="1" source="GA9b0eAUMchBOjDDj7Ir-199" target="GA9b0eAUMchBOjDDj7Ir-192">
          <mxGeometry width="50" height="50" relative="1" as="geometry">
            <mxPoint x="-327" y="-250" as="sourcePoint" />
            <mxPoint x="-327" y="-270" as="targetPoint" />
          </mxGeometry>
        </mxCell>
        <mxCell id="GA9b0eAUMchBOjDDj7Ir-203" value="-" style="ellipse;whiteSpace=wrap;html=1;aspect=fixed;" vertex="1" parent="1">
          <mxGeometry x="-407" y="-210" width="40" height="40" as="geometry" />
        </mxCell>
        <mxCell id="GA9b0eAUMchBOjDDj7Ir-204" value="E" style="ellipse;whiteSpace=wrap;html=1;aspect=fixed;" vertex="1" parent="1">
          <mxGeometry x="-357" y="-210" width="40" height="40" as="geometry" />
        </mxCell>
        <mxCell id="GA9b0eAUMchBOjDDj7Ir-205" value="l" style="ellipse;whiteSpace=wrap;html=1;aspect=fixed;" vertex="1" parent="1">
          <mxGeometry x="-357" y="-160" width="40" height="40" as="geometry" />
        </mxCell>
        <mxCell id="GA9b0eAUMchBOjDDj7Ir-206" value="" style="endArrow=none;html=1;rounded=0;exitX=0.5;exitY=0;exitDx=0;exitDy=0;entryX=0.5;entryY=1;entryDx=0;entryDy=0;" edge="1" parent="1" source="GA9b0eAUMchBOjDDj7Ir-203" target="GA9b0eAUMchBOjDDj7Ir-200">
          <mxGeometry width="50" height="50" relative="1" as="geometry">
            <mxPoint x="-377" y="-250" as="sourcePoint" />
            <mxPoint x="-327" y="-270" as="targetPoint" />
          </mxGeometry>
        </mxCell>
        <mxCell id="GA9b0eAUMchBOjDDj7Ir-207" value="" style="endArrow=none;html=1;rounded=0;exitX=0.5;exitY=0;exitDx=0;exitDy=0;entryX=0.5;entryY=1;entryDx=0;entryDy=0;" edge="1" parent="1" source="GA9b0eAUMchBOjDDj7Ir-204" target="GA9b0eAUMchBOjDDj7Ir-200">
          <mxGeometry width="50" height="50" relative="1" as="geometry">
            <mxPoint x="-377" y="-200" as="sourcePoint" />
            <mxPoint x="-327" y="-210" as="targetPoint" />
          </mxGeometry>
        </mxCell>
        <mxCell id="GA9b0eAUMchBOjDDj7Ir-208" value="" style="endArrow=none;html=1;rounded=0;exitX=0.5;exitY=0;exitDx=0;exitDy=0;entryX=0.5;entryY=1;entryDx=0;entryDy=0;" edge="1" parent="1" source="GA9b0eAUMchBOjDDj7Ir-205" target="GA9b0eAUMchBOjDDj7Ir-204">
          <mxGeometry width="50" height="50" relative="1" as="geometry">
            <mxPoint x="-327" y="-200" as="sourcePoint" />
            <mxPoint x="-327" y="-210" as="targetPoint" />
          </mxGeometry>
        </mxCell>
        <mxCell id="GA9b0eAUMchBOjDDj7Ir-209" value="*" style="ellipse;whiteSpace=wrap;html=1;aspect=fixed;" vertex="1" parent="1">
          <mxGeometry x="-307" y="-260" width="40" height="40" as="geometry" />
        </mxCell>
        <mxCell id="GA9b0eAUMchBOjDDj7Ir-210" value="E" style="ellipse;whiteSpace=wrap;html=1;aspect=fixed;" vertex="1" parent="1">
          <mxGeometry x="-257" y="-260" width="40" height="40" as="geometry" />
        </mxCell>
        <mxCell id="GA9b0eAUMchBOjDDj7Ir-211" value="" style="endArrow=none;html=1;rounded=0;exitX=0.5;exitY=0;exitDx=0;exitDy=0;entryX=0.5;entryY=1;entryDx=0;entryDy=0;" edge="1" parent="1" source="GA9b0eAUMchBOjDDj7Ir-209" target="GA9b0eAUMchBOjDDj7Ir-194">
          <mxGeometry width="50" height="50" relative="1" as="geometry">
            <mxPoint x="-327" y="-250" as="sourcePoint" />
            <mxPoint x="-327" y="-270" as="targetPoint" />
          </mxGeometry>
        </mxCell>
        <mxCell id="GA9b0eAUMchBOjDDj7Ir-212" value="" style="endArrow=none;html=1;rounded=0;exitX=0.5;exitY=0;exitDx=0;exitDy=0;entryX=0.5;entryY=1;entryDx=0;entryDy=0;" edge="1" parent="1" source="GA9b0eAUMchBOjDDj7Ir-210" target="GA9b0eAUMchBOjDDj7Ir-194">
          <mxGeometry width="50" height="50" relative="1" as="geometry">
            <mxPoint x="-277" y="-250" as="sourcePoint" />
            <mxPoint x="-227" y="-270" as="targetPoint" />
          </mxGeometry>
        </mxCell>
        <mxCell id="GA9b0eAUMchBOjDDj7Ir-213" value="E" style="ellipse;whiteSpace=wrap;html=1;aspect=fixed;" vertex="1" parent="1">
          <mxGeometry x="-257" y="-210" width="40" height="40" as="geometry" />
        </mxCell>
        <mxCell id="GA9b0eAUMchBOjDDj7Ir-214" value="(" style="ellipse;whiteSpace=wrap;html=1;aspect=fixed;" vertex="1" parent="1">
          <mxGeometry x="-307" y="-210" width="40" height="40" as="geometry" />
        </mxCell>
        <mxCell id="GA9b0eAUMchBOjDDj7Ir-215" value=")" style="ellipse;whiteSpace=wrap;html=1;aspect=fixed;" vertex="1" parent="1">
          <mxGeometry x="-210" y="-210" width="40" height="40" as="geometry" />
        </mxCell>
        <mxCell id="GA9b0eAUMchBOjDDj7Ir-217" value="l" style="ellipse;whiteSpace=wrap;html=1;aspect=fixed;" vertex="1" parent="1">
          <mxGeometry x="-307" y="-160" width="40" height="40" as="geometry" />
        </mxCell>
        <mxCell id="GA9b0eAUMchBOjDDj7Ir-218" value="M" style="ellipse;whiteSpace=wrap;html=1;aspect=fixed;" vertex="1" parent="1">
          <mxGeometry x="-257" y="-160" width="40" height="40" as="geometry" />
        </mxCell>
        <mxCell id="GA9b0eAUMchBOjDDj7Ir-219" value="" style="endArrow=none;html=1;rounded=0;exitX=0.5;exitY=0;exitDx=0;exitDy=0;entryX=0.5;entryY=1;entryDx=0;entryDy=0;" edge="1" parent="1" source="GA9b0eAUMchBOjDDj7Ir-213" target="GA9b0eAUMchBOjDDj7Ir-210">
          <mxGeometry width="50" height="50" relative="1" as="geometry">
            <mxPoint x="-277" y="-250" as="sourcePoint" />
            <mxPoint x="-227" y="-270" as="targetPoint" />
          </mxGeometry>
        </mxCell>
        <mxCell id="GA9b0eAUMchBOjDDj7Ir-220" value="" style="endArrow=none;html=1;rounded=0;exitX=0.5;exitY=0;exitDx=0;exitDy=0;entryX=0.5;entryY=1;entryDx=0;entryDy=0;" edge="1" parent="1" source="GA9b0eAUMchBOjDDj7Ir-218" target="GA9b0eAUMchBOjDDj7Ir-213">
          <mxGeometry width="50" height="50" relative="1" as="geometry">
            <mxPoint x="-227" y="-200" as="sourcePoint" />
            <mxPoint x="-227" y="-210" as="targetPoint" />
          </mxGeometry>
        </mxCell>
        <mxCell id="GA9b0eAUMchBOjDDj7Ir-221" value="" style="endArrow=none;html=1;rounded=0;exitX=0.5;exitY=0;exitDx=0;exitDy=0;entryX=0.5;entryY=1;entryDx=0;entryDy=0;" edge="1" parent="1" source="GA9b0eAUMchBOjDDj7Ir-217" target="GA9b0eAUMchBOjDDj7Ir-213">
          <mxGeometry width="50" height="50" relative="1" as="geometry">
            <mxPoint x="-227" y="-150" as="sourcePoint" />
            <mxPoint x="-227" y="-160" as="targetPoint" />
          </mxGeometry>
        </mxCell>
        <mxCell id="GA9b0eAUMchBOjDDj7Ir-222" value="+" style="ellipse;whiteSpace=wrap;html=1;aspect=fixed;" vertex="1" parent="1">
          <mxGeometry x="-307" y="-110" width="40" height="40" as="geometry" />
        </mxCell>
        <mxCell id="GA9b0eAUMchBOjDDj7Ir-223" value="E" style="ellipse;whiteSpace=wrap;html=1;aspect=fixed;" vertex="1" parent="1">
          <mxGeometry x="-257" y="-110" width="40" height="40" as="geometry" />
        </mxCell>
        <mxCell id="GA9b0eAUMchBOjDDj7Ir-224" value="l" style="ellipse;whiteSpace=wrap;html=1;aspect=fixed;" vertex="1" parent="1">
          <mxGeometry x="-257" y="-60" width="40" height="40" as="geometry" />
        </mxCell>
        <mxCell id="GA9b0eAUMchBOjDDj7Ir-225" value="" style="endArrow=none;html=1;rounded=0;exitX=0.5;exitY=0;exitDx=0;exitDy=0;entryX=0.5;entryY=1;entryDx=0;entryDy=0;" edge="1" parent="1" source="GA9b0eAUMchBOjDDj7Ir-222" target="GA9b0eAUMchBOjDDj7Ir-218">
          <mxGeometry width="50" height="50" relative="1" as="geometry">
            <mxPoint x="-277" y="-150" as="sourcePoint" />
            <mxPoint x="-227" y="-160" as="targetPoint" />
          </mxGeometry>
        </mxCell>
        <mxCell id="GA9b0eAUMchBOjDDj7Ir-226" value="" style="endArrow=none;html=1;rounded=0;exitX=0.5;exitY=0;exitDx=0;exitDy=0;entryX=0.5;entryY=1;entryDx=0;entryDy=0;" edge="1" parent="1" source="GA9b0eAUMchBOjDDj7Ir-223" target="GA9b0eAUMchBOjDDj7Ir-218">
          <mxGeometry width="50" height="50" relative="1" as="geometry">
            <mxPoint x="-277" y="-100" as="sourcePoint" />
            <mxPoint x="-227" y="-110" as="targetPoint" />
          </mxGeometry>
        </mxCell>
        <mxCell id="GA9b0eAUMchBOjDDj7Ir-227" value="" style="endArrow=none;html=1;rounded=0;exitX=0.5;exitY=0;exitDx=0;exitDy=0;entryX=0.5;entryY=1;entryDx=0;entryDy=0;" edge="1" parent="1" source="GA9b0eAUMchBOjDDj7Ir-224" target="GA9b0eAUMchBOjDDj7Ir-223">
          <mxGeometry width="50" height="50" relative="1" as="geometry">
            <mxPoint x="-227" y="-100" as="sourcePoint" />
            <mxPoint x="-227" y="-110" as="targetPoint" />
          </mxGeometry>
        </mxCell>
      </root>
    </mxGraphModel>
  </diagram>
</mxfile>
